<svg width="41" height="41" viewBox="0 0 41 41" fill="none" xmlns="http://www.w3.org/2000/svg">
<circle cx="20.5" cy="20.5" r="19.5" stroke="url(#paint0_linear)"/>
<path d="M24.7317 11H22.2635C19.5132 11 17.7503 12.8335 17.7503 15.6543V17.7699H15.3526C15.141 17.7699 15 17.9109 15 18.1225V21.2253C15 21.4369 15.141 21.5779 15.3526 21.5779H17.8208V29.335C17.8208 29.5466 17.9618 29.6876 18.1734 29.6876H21.3467C21.5583 29.6876 21.6993 29.5466 21.6993 29.335V21.5779H24.5906C24.8022 21.5779 24.9432 21.4369 24.9432 21.2253V18.1225C24.9432 18.0519 24.8727 17.9109 24.8022 17.8404C24.7317 17.7699 24.6612 17.6993 24.5201 17.6993H21.6288V15.9364C21.6288 15.0901 21.8404 14.5965 22.9687 14.5965H24.5906C24.8022 14.5965 24.9432 14.4554 24.9432 14.2439V11.3526C25.0843 11.141 24.9432 11 24.7317 11Z" fill="#BB4CBE"/>
<defs>
<linearGradient id="paint0_linear" x1="1" y1="17.0179" x2="24.0704" y2="17.0179" gradientUnits="userSpaceOnUse">
<stop stop-color="#E24C91"/>
<stop offset="1" stop-color="#A24DDD"/>
</linearGradient>
</defs>
</svg>
