<svg width="54" height="61" viewBox="0 0 54 61" fill="none" xmlns="http://www.w3.org/2000/svg">
<path fill-rule="evenodd" clip-rule="evenodd" d="M29.9298 41.8356H53.1626C53.6587 41.8356 54.0721 42.249 53.9894 42.7451V59.2809C53.9894 59.7769 53.576 60.1903 53.0799 60.1903H21.3312H21.2485H0.909469C0.413395 60.1903 0 59.7769 0 59.2809C0 53.9894 2.64573 48.946 7.1104 45.6388V42.7451C7.1104 42.249 7.52379 41.8356 8.01987 41.8356H16.2878C16.2051 41.5049 16.2051 41.1742 16.2051 40.7608V38.2804C14.3862 37.0402 12.8979 35.2213 11.9885 33.1543C9.09469 33.1543 6.77968 30.7566 6.77968 27.8628V27.4494V27.2841V16.3704C6.77968 7.35843 14.0554 0 23.0675 0C32.0795 0 39.4379 7.35843 39.5206 16.3704V27.2841V27.7802C39.5206 30.6739 37.1229 33.0716 34.2291 33.0716H34.0638C33.1543 35.1386 31.7488 36.8749 30.0125 38.115V40.7608C30.0125 41.0915 30.0125 41.5049 29.9298 41.8356ZM34.9732 28.4416C34.9732 29.3511 34.8906 30.2605 34.6425 31.17C36.2961 30.922 37.619 29.5164 37.5363 27.8628C37.5363 26.2919 36.4615 24.8864 34.9732 24.5557V24.6384V28.4416ZM37.5363 16.3704C37.5363 8.43326 31.0873 1.90162 23.0675 1.90162C15.1303 1.90162 8.59862 8.35058 8.51594 16.2878V23.7289C9.17737 23.1501 9.92148 22.7367 10.831 22.5714V18.2721C10.831 18.024 10.9963 17.6933 11.2443 17.528L11.2444 17.528C11.4097 17.4453 11.5751 17.3626 11.7404 17.3626C11.9058 17.3626 12.0711 17.3626 12.2365 17.4453C14.0554 18.1894 15.8744 18.5201 17.776 18.5201C18.3547 18.5201 18.8508 18.5201 19.3469 18.4374C23.0675 18.1067 26.3746 16.3704 28.9377 13.642C29.103 13.394 29.3511 13.3113 29.5991 13.3113C29.8471 13.3113 30.1779 13.394 30.3432 13.5594C32.2448 15.2956 33.8157 17.2799 34.8906 19.5949C34.9732 19.7603 34.9732 19.843 34.9732 20.0083V22.5714C35.9654 22.7367 36.7922 23.1501 37.5363 23.7289V16.3704ZM11.079 24.5557C9.67345 24.9691 8.6813 26.2919 8.6813 27.7802C8.6813 29.4337 9.83881 30.8393 11.4924 31.0873C11.2443 30.2605 11.1617 29.2684 11.1617 28.3589V24.721L11.1617 24.721C11.1141 24.6735 11.0939 24.6533 11.0853 24.629C11.079 24.611 11.079 24.5908 11.079 24.5557ZM12.9806 23.6462V28.3589C12.9806 33.8984 17.4453 38.4458 22.9848 38.4458C28.5243 38.4458 33.0716 33.8984 33.0716 28.3589V24.8037C32.9889 24.6384 32.9889 24.5557 32.9889 24.3903V20.1737C32.1621 18.4374 31.0046 16.8665 29.6818 15.5437C26.8707 18.1894 23.2328 19.9256 19.4296 20.2564C18.9335 20.339 18.3547 20.339 17.776 20.339C16.2051 20.339 14.5515 20.091 12.9806 19.5949V23.1501C13.0633 23.2328 13.0633 23.3155 13.0633 23.3982C13.0633 23.4395 13.0426 23.4808 13.0219 23.5222C13.0013 23.5635 12.9806 23.6049 12.9806 23.6462ZM18.1067 39.2725V40.6781C18.1067 40.8963 18.1297 41.0915 18.1515 41.2757L18.1515 41.2758C18.171 41.4406 18.1894 41.5968 18.1894 41.7529H28.1109C28.1936 41.4222 28.1936 41.0915 28.1936 40.6781V39.1899C26.6227 39.934 24.8864 40.3474 23.0675 40.3474C21.2485 40.3474 19.5949 39.934 18.1067 39.2725ZM7.1104 58.3714V48.0365C4.05127 50.7649 2.14966 54.4855 1.90162 58.3714H7.1104ZM9.01202 58.3714H52.2532V43.6545H9.01202V58.3714ZM13.0633 55.395L13.5594 52.5012L11.4924 50.5169C11.2444 50.2689 11.1617 49.8555 11.2444 49.5248C11.3271 49.1941 11.6578 48.946 11.9885 48.8633L14.8823 48.4499L16.2051 45.7215C16.3705 45.3908 16.7012 45.2255 17.0319 45.2255C17.3626 45.2255 17.6933 45.3908 17.8587 45.7215L19.1816 48.3673L22.0753 48.7807C22.4061 48.8633 22.7368 49.1114 22.8194 49.4421C22.9021 49.7728 22.8194 50.1862 22.5714 50.4342L20.5044 52.5012L21.0005 55.395C21.0005 55.7257 20.8352 56.0564 20.5871 56.3045C20.4218 56.3871 20.1737 56.4698 20.0084 56.4698C19.843 56.4698 19.7603 56.4698 19.595 56.3871L17.0319 55.0643L14.4689 56.3871C14.1381 56.5525 13.7248 56.5525 13.4767 56.3045C13.146 56.1391 12.9806 55.7257 13.0633 55.395ZM16.3705 49.7728C16.2051 50.0208 15.9571 50.1862 15.6264 50.2689L14.1382 50.4342L15.2957 51.5091C15.461 51.7571 15.6264 52.0051 15.5437 52.3359L15.2957 53.8241L16.6185 53.1627C16.7012 53.08 16.8666 53.08 17.0319 53.08C17.1973 53.08 17.28 53.08 17.4453 53.1627L18.7682 53.8241L18.5201 52.3359C18.4375 52.0051 18.5201 51.7571 18.7682 51.5091L19.843 50.4342L18.4375 50.2689C18.1067 50.2689 17.8587 50.0208 17.6933 49.7728L17.0319 48.4499L16.3705 49.7728ZM26.9534 52.5012L26.4573 55.395C26.3746 55.7257 26.54 56.1391 26.8707 56.3045C27.2014 56.5525 27.5321 56.5525 27.8628 56.3871L30.4259 55.0643L32.9889 56.3871C33.1543 56.4698 33.237 56.4698 33.4023 56.4698C33.5677 56.4698 33.8157 56.3871 33.9811 56.3045C34.2291 56.0564 34.3945 55.7257 34.3945 55.395L33.8984 52.5012L35.9654 50.4342C36.2134 50.1862 36.2961 49.7728 36.2134 49.4421C36.1308 49.1114 35.8 48.8633 35.4693 48.7807L32.5756 48.3673L31.2527 45.7215C31.0873 45.3908 30.7566 45.2255 30.4259 45.2255C30.0952 45.2255 29.7645 45.3908 29.5991 45.7215L28.2762 48.3673L25.3825 48.7807C25.0518 48.8633 24.721 49.1114 24.6384 49.4421C24.5557 49.7728 24.6384 50.1862 24.8864 50.4342L26.9534 52.5012ZM29.0204 50.2689C29.3511 50.1862 29.5991 50.0208 29.7645 49.7728L30.4259 48.4499L31.0873 49.7728C31.2527 50.0208 31.5007 50.2689 31.8314 50.2689L33.3197 50.5169L32.2448 51.5918C31.9968 51.8398 31.9141 52.0878 31.9968 52.4185L32.2448 53.9068L30.922 53.2453C30.7566 53.1627 30.6739 53.1627 30.5086 53.1627C30.3432 53.1627 30.1779 53.1627 30.0952 53.2453L28.7723 53.9068L29.0204 52.4185C29.103 52.0878 28.9377 51.8398 28.7723 51.5918L27.5321 50.4342L29.0204 50.2689ZM39.934 55.395L40.4301 52.5012L38.3631 50.5169C38.1151 50.2689 38.0324 49.8555 38.1151 49.5248C38.1977 49.1941 38.5284 48.946 38.8592 48.8633L41.7529 48.3673L43.0758 45.7215C43.2411 45.3908 43.5719 45.2255 43.9026 45.2255C44.2333 45.2255 44.564 45.3908 44.7294 45.7215L46.0522 48.3673L48.946 48.7807C49.2767 48.8633 49.6074 49.1114 49.6901 49.4421C49.7728 49.7728 49.6901 50.1862 49.4421 50.4342L47.3751 52.5012L47.8712 55.395C47.8712 55.7257 47.7058 56.0564 47.4578 56.3045C47.2924 56.3871 47.0444 56.4698 46.879 56.4698C46.7137 56.4698 46.631 56.4698 46.4656 56.3871L43.9026 55.0643L41.3395 56.3871C41.0088 56.5525 40.6781 56.5525 40.3474 56.3045C40.0167 56.1391 39.8513 55.7257 39.934 55.395ZM43.2411 49.7728C43.0758 50.0208 42.8278 50.1862 42.497 50.2689L41.0088 50.4342L42.1663 51.5918C42.3317 51.8398 42.497 52.0878 42.4144 52.4185L42.1663 53.9068L43.4892 53.2453C43.8199 53.08 44.1506 53.08 44.3987 53.2453L45.7215 53.9068L45.4735 52.4185C45.3908 52.0878 45.4735 51.8398 45.7215 51.5918L46.7963 50.5169L45.3081 50.2689C44.9774 50.2689 44.7294 50.0208 44.564 49.7728L43.9026 48.4499L43.2411 49.7728Z" fill="url(#paint0_linear)"/>
<defs>
<linearGradient id="paint0_linear" x1="9.87868e-09" y1="24.721" x2="31.9437" y2="24.721" gradientUnits="userSpaceOnUse">
<stop stop-color="#E24C91"/>
<stop offset="1" stop-color="#A24DDD"/>
</linearGradient>
</defs>
</svg>
