<svg width="73" height="55" viewBox="0 0 73 55" fill="none" xmlns="http://www.w3.org/2000/svg">
<path d="M72.7621 15.0023L58.5227 0.68459C58.1315 0.293396 57.5055 0.293396 57.1144 0.68459L49.9946 7.80432C49.8381 7.9608 49.6817 8.27376 49.6817 8.50847C49.6817 8.74319 49.7599 9.05615 49.9946 9.21262L50.8552 10.0732L49.0558 11.8727C47.9604 12.9681 46.2392 13.281 44.7526 12.6551C43.5008 12.0292 42.0925 11.7163 40.6842 11.7163C39.0412 11.7163 37.3982 12.1075 35.9116 12.9681H35.8334H35.7551C34.2686 12.5769 32.7038 12.6551 31.2955 13.2028C29.809 13.7505 28.3225 13.4375 27.2271 12.3422L24.1758 9.29086L24.6452 8.82143C24.8017 8.66495 24.9582 8.352 24.9582 8.11728C24.9582 7.88256 24.88 7.56961 24.6452 7.41313L17.5255 0.293396C17.1343 -0.0977985 16.5084 -0.0977985 16.1172 0.293396L0.312955 16.0976C0.0782388 16.3324 0 16.5671 0 16.8018C0 17.0365 0.0782388 17.3495 0.312955 17.5059L7.43269 24.6257C7.82388 25.0169 8.44979 25.0169 8.84099 24.6257L9.38866 24.078L11.5793 26.2687C12.127 26.8164 12.5182 27.5205 12.5965 28.2247C13.3006 31.9019 15.0219 35.1879 17.682 37.848L18.2296 38.3957L18.0732 38.5522C17.369 39.3346 16.9778 40.2734 16.9778 41.2905C16.9778 42.3859 17.369 43.403 18.1514 44.1071C18.9338 44.8895 20.0291 45.359 21.2027 45.2807H21.4374V45.5154C21.3592 46.689 21.8286 47.7844 22.611 48.5668C23.3934 49.3491 24.4105 49.7403 25.4276 49.7403H25.6623V49.8968C25.6623 50.9922 26.0535 52.0875 26.8359 52.8699C27.6183 53.6523 28.6354 54.0435 29.6525 54.0435C30.7479 54.0435 31.765 53.6523 32.4691 52.8699C32.5474 52.7916 32.6256 52.7134 32.6256 52.6352L32.7038 52.5569L32.8603 52.6352C33.2515 52.7917 33.6427 52.8699 34.1121 52.8699C35.1292 52.8699 36.0681 52.4787 36.7723 51.7745C37.1634 51.3834 37.3982 50.9922 37.6329 50.4445L37.7111 50.2098L38.0241 50.5227C38.7282 51.2269 39.6671 51.6181 40.6842 51.6181C41.7013 51.6181 42.6402 51.2269 43.3443 50.5227C43.7355 50.1315 44.0485 49.6621 44.2049 49.1927L44.2832 48.9579L44.5179 49.1144C45.1438 49.5839 45.9262 49.8186 46.7086 49.8186C47.7257 49.8186 48.6646 49.4274 49.3687 48.7232C50.0729 48.0191 50.4641 47.0802 50.4641 46.0631C50.4641 45.7502 50.4641 45.4372 50.3858 45.2025L50.3076 45.046H50.4641C51.1682 44.8895 51.8724 44.5766 52.3418 44.0289C53.0459 43.3248 53.4371 42.3859 53.4371 41.3688C53.4371 40.5864 53.2024 39.804 52.733 39.1781L52.6547 39.0216L53.6718 38.0045C56.332 35.3444 58.0532 31.9801 58.7574 28.3029C58.9138 27.677 59.2268 27.0511 59.6962 26.5034L63.2952 22.9044L64.0776 23.6868C64.4688 24.078 65.0947 24.078 65.4859 23.6868L72.6056 16.5671C72.7621 16.4106 72.9186 16.0976 72.9186 15.8629C73.0751 15.3935 72.9968 15.1588 72.7621 15.0023ZM8.13684 22.5132L6.18087 20.5573L16.1172 10.5427C16.5084 10.1515 16.5084 9.52558 16.1172 9.05615C15.726 8.66495 15.1001 8.66495 14.6307 9.05615L4.69433 19.0707L2.34717 16.8018L16.8214 2.32761L22.5328 8.03904L8.13684 22.5132ZM22.4545 42.7771C22.0634 43.1683 21.5157 43.403 20.968 43.403C20.4203 43.403 19.9509 43.1683 19.4815 42.7771C19.0903 42.3859 18.8556 41.8382 18.8556 41.2905C18.8556 40.7429 19.0903 40.1952 19.4815 39.804C19.8727 39.4128 20.4203 39.1781 20.968 39.1781C21.5157 39.1781 22.0634 39.4128 22.4545 39.804C22.8457 40.1952 23.0805 40.7429 23.0805 41.2905C23.0805 41.8382 22.8457 42.3859 22.4545 42.7771ZM26.8359 47.1585C26.4447 47.5496 25.8971 47.7844 25.3494 47.7844C24.8017 47.7844 24.254 47.5496 23.8628 47.1585C23.4717 46.7673 23.2369 46.2196 23.2369 45.6719C23.2369 45.1242 23.4717 44.5766 23.8628 44.1854C24.254 43.7942 24.8017 43.5595 25.3494 43.5595C25.8971 43.5595 26.4447 43.7942 26.8359 44.1854C27.2271 44.5766 27.4618 45.1242 27.4618 45.6719C27.4618 46.2196 27.2271 46.7673 26.8359 47.1585ZM31.2173 51.4616C30.8261 51.8528 30.2784 52.0875 29.7308 52.0875C29.1831 52.0875 28.6354 51.8528 28.2442 51.4616C27.853 51.0704 27.6183 50.5227 27.6183 49.9751C27.6183 49.4274 27.853 48.8797 28.2442 48.4885C28.6354 48.0973 29.1831 47.8626 29.7308 47.8626C30.2784 47.8626 30.8261 48.0973 31.2173 48.4885C31.6085 48.8797 31.8432 49.4274 31.8432 49.9751C31.765 50.601 31.5303 51.0704 31.2173 51.4616ZM51.09 42.4641C50.3858 43.1683 49.2122 43.1683 48.5863 42.4641L37.1634 31.1195C36.7723 30.7283 36.1463 30.7283 35.7551 31.1195C35.364 31.5107 35.364 32.1366 35.7551 32.5278L48.0386 44.8113C48.3516 45.1242 48.5863 45.5937 48.5863 46.0631C48.5863 46.5325 48.4298 47.002 48.0386 47.3149C47.3345 48.0191 46.2392 48.0191 45.535 47.3149L33.9557 35.6573C33.5645 35.2662 32.9385 35.2662 32.5474 35.6573C32.3909 35.8138 32.2344 36.1268 32.2344 36.3615C32.2344 36.5962 32.3126 36.9092 32.5474 37.0656L42.0925 46.6108C42.4054 46.9237 42.5619 47.3932 42.5619 47.8626C42.5619 48.332 42.4055 48.8015 42.0143 49.1144C41.3101 49.8186 40.2148 49.8186 39.5106 49.1144L29.1831 38.7087C28.7919 38.3175 28.166 38.3175 27.7748 38.7087C27.6183 38.8651 27.4618 39.1781 27.4618 39.4128C27.4618 39.6475 27.5401 39.9605 27.7748 40.117L35.4422 47.7844C35.7551 48.0973 35.9899 48.5668 35.9899 49.0362C35.9899 49.5056 35.8334 49.9751 35.4422 50.288C35.1292 50.601 34.6598 50.8357 34.1904 50.8357C34.1121 50.8357 33.9557 50.8357 33.8774 50.8357H33.7209V50.6792C33.8774 49.4274 33.4862 48.0973 32.5474 47.2367C31.765 46.4543 30.7479 46.0631 29.7308 46.0631H29.496V45.8284C29.496 44.7331 29.1048 43.6377 28.3225 42.8553C27.5401 42.0729 26.4447 41.6035 25.2711 41.6817H25.0364V41.447C25.1147 40.2734 24.6452 39.1781 23.8628 38.3957C22.8457 37.3786 21.4374 36.9874 20.1074 37.3004H20.0291L19.0903 36.3615C16.7431 34.0143 15.1783 31.0413 14.5524 27.8335C14.3177 26.6599 13.77 25.6428 12.9876 24.7822L10.797 22.6697L22.8457 10.6209L25.8971 13.6722C26.9924 14.7676 28.4789 15.3153 29.9655 15.3153C30.6696 15.3153 31.3738 15.1588 31.9997 14.9241C32.3126 14.7676 32.7038 14.6893 33.095 14.6893L33.6427 14.6111L25.9753 22.2785C25.1147 23.1391 24.6452 24.2345 24.6452 25.4863C24.6452 26.6599 25.1147 27.8335 25.9753 28.6941C26.8359 29.5547 27.9313 30.0242 29.1831 30.0242C30.3567 30.0242 31.5303 29.5547 32.3909 28.6941L36.1463 24.9386L37.3982 26.1904L51.1682 39.9605C51.4812 40.2734 51.7159 40.7429 51.7159 41.2123C51.6376 41.6817 51.4029 42.1512 51.09 42.4641ZM58.5227 24.9386C57.7403 25.721 57.1926 26.7381 57.0361 27.7552C56.4102 31.0413 54.8454 34.0143 52.4983 36.4397L51.4812 37.4568L43.5008 29.5547H43.9702C44.9091 29.633 45.848 29.4765 46.6303 29.1635C46.8651 29.0853 47.0998 28.8506 47.178 28.6159C47.2563 28.3811 47.2563 28.0682 47.178 27.8335C46.9433 27.364 46.3956 27.0511 45.9262 27.2858C42.7966 28.5376 39.1194 25.0951 38.65 24.7039L37.3982 23.4521L38.65 22.2003C38.8065 22.0438 38.9629 21.7308 38.9629 21.4961C38.9629 21.2614 38.8847 20.9484 38.65 20.792C38.2588 20.4008 37.6329 20.4008 37.2417 20.792L30.9043 27.364C29.8872 28.3811 28.3225 28.3811 27.3054 27.364C26.8359 26.8946 26.523 26.2687 26.523 25.5645C26.523 24.8604 26.7577 24.2345 27.3054 23.765L35.051 16.0194C35.5204 15.55 35.9899 15.1588 36.5375 14.8458C37.7894 14.0634 39.1977 13.6722 40.6842 13.6722C41.7795 13.6722 42.9531 13.907 43.9702 14.3764C46.1609 15.3935 48.821 14.9241 50.4641 13.2028L52.2635 11.4033L62.1216 21.2614L58.5227 24.9386ZM68.5372 17.8189L60.2439 9.44734C59.8527 9.05615 59.2268 9.05615 58.7574 9.44734C58.3662 9.83853 58.3662 10.4644 58.7574 10.9339L67.0507 19.3054L64.9382 21.4179L64.7818 21.2614L52.1071 8.50847L57.8185 2.79704L57.975 2.95352L70.6497 15.6282L68.5372 17.8189Z" fill="url(#paint0_linear)"/>
<defs>
<linearGradient id="paint0_linear" x1="0" y1="27.0167" x2="73.0709" y2="27.0167" gradientUnits="userSpaceOnUse">
<stop offset="0.0107527" stop-color="#E14C93"/>
<stop offset="1" stop-color="#A24DDD"/>
</linearGradient>
</defs>
</svg>
