<svg width="62" height="55" viewBox="0 0 62 55" fill="none" xmlns="http://www.w3.org/2000/svg">
<path fill-rule="evenodd" clip-rule="evenodd" d="M58.5943 39.8627H51.1635V5.26342C51.1635 2.70911 49.3059 0.541823 46.829 0.0774032C46.6742 0 46.5968 0 46.4419 0H5.10861C2.24469 0 0 2.24469 0 5.03121C0 7.74032 2.16729 9.98502 4.8764 10.0624V53.9501C4.8764 54.4145 5.26342 54.8015 5.72784 54.8015H46.5968C47.0612 54.8015 47.4482 54.4145 47.4482 53.9501V50.4669H50.2347C50.6991 50.4669 51.0861 50.0799 51.0861 49.6155V46.6742H58.5169C60.3745 46.6742 61.9226 45.1261 61.9226 43.2684C61.9226 41.4107 60.4519 39.8627 58.5943 39.8627ZM60.2197 43.2684C60.2197 44.1973 59.5231 44.8939 58.5943 44.8939H57.0462V41.6429H58.5943C59.5231 41.6429 60.2197 42.3396 60.2197 43.2684ZM55.2659 41.6429V44.8939H54.1049V41.6429H55.2659ZM49.3833 46.6742V48.764H47.4482V46.6742H49.3833ZM52.402 41.6429V44.8939H46.5968H18.1124V41.6429H52.402ZM42.6492 8.35955H5.10861C3.25094 8.35955 1.78027 6.88889 1.78027 5.03121C1.78027 3.17353 3.25094 1.70287 5.10861 1.70287H42.6492C41.7978 2.70911 41.4107 3.87016 41.4107 5.03121C41.4107 6.26966 41.7978 7.43071 42.6492 8.35955ZM49.3059 39.8627H47.4482L47.2934 9.28839C47.2934 8.82397 46.9064 8.43695 46.4419 8.43695C44.5843 8.43695 43.1136 6.96629 43.1136 5.10861C43.1136 3.40574 44.4295 1.93508 46.1323 1.78027H46.3645C46.5194 1.78027 46.6742 1.78027 46.7516 1.85768H46.829H46.9064C46.9838 1.89638 47.0612 1.91573 47.1386 1.93508C47.216 1.95443 47.2934 1.97378 47.3708 2.01248C48.5318 2.63171 49.3059 3.79276 49.3059 5.10861V5.18602V39.8627ZM6.57928 10.1398H45.5905L45.6679 39.8627H17.1835C17.0287 39.8627 16.9513 39.8627 16.8739 39.9401L10.9139 42.4944C10.6042 42.6492 10.372 42.9588 10.372 43.2684C10.372 43.578 10.6042 43.965 10.9139 44.0424L16.8739 46.5968C16.9513 46.6742 17.1061 46.6742 17.1835 46.6742H45.6679V53.176H6.57928V10.1398ZM13.5456 43.2684L16.3321 42.1074V44.5069L13.5456 43.2684ZM12.9263 35.0637C13.1586 35.0637 13.3134 34.9863 13.5456 34.8315L19.4282 29.5681C19.583 29.4133 19.7378 29.1811 19.7378 28.9489C19.7378 28.7167 19.6604 28.4844 19.5056 28.3296C19.3508 28.1748 19.1186 28.02 18.8864 28.02C18.6542 28.02 18.422 28.0974 18.2672 28.2522L13.0037 32.8964L11.6105 31.5032C11.3009 31.1161 10.7591 31.1161 10.372 31.4258C9.98502 31.7354 9.98502 32.2772 10.2946 32.6642L12.2297 34.7541C12.4619 34.9863 12.6941 35.0637 12.9263 35.0637ZM12.8489 22.7566C12.6167 22.7566 12.3845 22.6018 12.2297 22.447L10.2946 20.3571C9.98502 19.9701 9.98502 19.4282 10.372 19.1186C10.7591 18.809 11.3009 18.809 11.6105 19.196L12.9263 20.5893L18.1898 15.9451C18.3446 15.7903 18.5768 15.7129 18.809 15.7129C19.0412 15.7129 19.2734 15.8677 19.4282 16.0225C19.583 16.1773 19.6604 16.4095 19.6604 16.6417C19.6604 16.8739 19.5056 17.1061 19.3508 17.261L13.4682 22.5244C13.236 22.6792 13.0811 22.7566 12.8489 22.7566ZM41.4107 33.2059H29.4906C29.0262 33.2059 28.6392 33.5929 28.6392 34.0574C28.6392 34.5218 29.0262 34.9088 29.4906 34.9088H41.4107C41.8751 34.9088 42.2622 34.5218 42.2622 34.0574C42.2622 33.5929 41.8751 33.2059 41.4107 33.2059ZM26.3171 34.9863H23.5306C22.9888 34.9863 22.6017 34.5993 22.6017 34.1349C22.6017 33.6705 22.9888 33.2834 23.4532 33.2834H26.3171C26.7815 33.2834 27.1685 33.6705 27.1685 34.1349C27.1685 34.5993 26.7815 34.9863 26.3171 34.9863ZM23.5306 30.8065H41.4881C41.9525 30.8065 42.3396 30.4195 42.3396 29.9551C42.3396 29.4907 41.9525 29.1036 41.4881 29.1036H23.5306C23.0662 29.1036 22.6791 29.4907 22.6791 29.9551C22.6791 30.4195 22.9888 30.8065 23.5306 30.8065ZM41.4881 22.0599H23.5306C22.9888 22.0599 22.6791 21.6729 22.6791 21.2085C22.6791 20.7441 23.0662 20.3571 23.5306 20.3571H41.4881C41.9525 20.3571 42.3396 20.7441 42.3396 21.2085C42.3396 21.6729 41.9525 22.0599 41.4881 22.0599ZM38.779 17.9575H41.4107C41.8751 17.9575 42.2622 17.5705 42.2622 17.1061C42.2622 16.6417 41.8751 16.2546 41.4107 16.2546H38.779C38.3146 16.2546 37.9276 16.6417 37.9276 17.1061C37.9276 17.5705 38.3146 17.9575 38.779 17.9575ZM35.8377 17.9575H23.5306C22.9888 17.9575 22.6791 17.5705 22.6791 17.1061C22.6791 16.6417 23.0662 16.2546 23.5306 16.2546H35.7603C36.3021 16.2546 36.6891 16.6417 36.6891 17.1061C36.6891 17.5705 36.3021 17.9575 35.8377 17.9575Z" fill="url(#paint0_linear)"/>
<defs>
<linearGradient id="paint0_linear" x1="1.1328e-08" y1="22.5078" x2="36.6303" y2="22.5078" gradientUnits="userSpaceOnUse">
<stop stop-color="#E24C91"/>
<stop offset="1" stop-color="#A24DDD"/>
</linearGradient>
</defs>
</svg>
