<svg width="55" height="56" viewBox="0 0 55 56" fill="none" xmlns="http://www.w3.org/2000/svg">
<path d="M54.132 0H27.5395C27.066 0 26.6714 0.394548 26.6714 0.868006V4.1033L26.5136 4.18221L16.2554 6.94405C15.7819 7.10187 15.5452 7.57532 15.6241 8.04878L20.99 28.0129L16.0976 32.9053L15.9397 32.6686C15.3874 31.8006 14.4405 31.3271 13.4146 31.3271H3.07748C1.42037 31.3271 0 32.6686 0 34.4046V52.0803C0 53.7374 1.34146 55.1578 3.07748 55.1578H13.4146C14.835 55.1578 16.0187 54.2109 16.3343 52.8694L16.4132 52.5538L17.9914 53.8953C18.9383 54.7633 20.2009 55.1578 21.4634 55.1578H54.132C54.6055 55.1578 55 54.7633 55 54.2898V0.868006C55 0.631277 54.9211 0.394548 54.7633 0.236729C54.6055 0.0789096 54.3687 0 54.132 0ZM14.7561 52.0014C14.7561 52.7116 14.2037 53.264 13.4935 53.264H3.07748C2.36729 53.264 1.81492 52.7116 1.81492 52.0014V34.3257C1.81492 33.6155 2.36729 33.0631 3.07748 33.0631H7.4175V45.7676C7.4175 46.241 7.81205 46.6356 8.28551 46.6356C8.75897 46.6356 9.15352 46.241 9.15352 45.7676V33.0631H13.4146C14.1248 33.0631 14.6772 33.6155 14.6772 34.3257V52.0014H14.7561ZM17.5179 8.36442L26.6714 5.91822V10.3372L25.8034 10.5739C25.5667 10.6528 25.4089 10.8106 25.2511 10.9684C25.1722 11.2052 25.0933 11.4419 25.1722 11.5997C25.6456 13.2568 24.6198 14.9928 22.9627 15.3874C22.726 15.4663 22.5681 15.6241 22.4103 15.7819C22.3314 16.0187 22.2525 16.2554 22.3314 16.4132L26.5925 32.274H23.9885L17.5179 8.36442ZM26.6714 14.4405V25.8824L24.2253 16.8867L24.3831 16.8077C25.1722 16.4132 25.8034 15.7819 26.2769 15.0717L26.6714 14.4405ZM41.9799 53.264H21.4634C20.5954 53.264 19.8063 52.9483 19.175 52.396L16.4921 50.0287V34.878L21.5423 29.8278L22.4892 33.5366C22.5682 33.9311 22.9627 34.1679 23.3572 34.1679H44.6628C45.6098 34.1679 46.3989 34.957 46.3989 35.9039C46.3989 36.8508 45.6098 37.6399 44.6628 37.6399H33.6944C33.221 37.6399 32.8264 38.0344 32.8264 38.5079C32.8264 38.9813 33.221 39.3759 33.6944 39.3759H47.977C48.924 39.3759 49.7131 40.165 49.7131 41.1119C49.7131 42.0588 48.924 42.8479 47.977 42.8479H33.6944C33.221 42.8479 32.8264 43.2425 32.8264 43.7159C32.8264 44.1894 33.221 44.5839 33.6944 44.5839H45.6887C46.6356 44.5839 47.4247 45.373 47.4247 46.3199C47.4247 47.2669 46.6356 48.056 45.6887 48.056H33.6944C33.221 48.056 32.8264 48.4505 32.8264 48.924C32.8264 49.3974 33.221 49.792 33.6944 49.792H41.9799C42.9268 49.792 43.7159 50.5811 43.7159 51.528C43.7159 52.4749 42.9268 53.264 41.9799 53.264ZM53.264 53.264H45.0574L45.2152 52.9483C45.4519 52.4749 45.5308 52.0014 45.5308 51.528C45.5308 51.0545 45.4519 50.5811 45.2152 50.1076L45.0574 49.792H45.6887C47.5825 49.792 49.1607 48.2138 49.1607 46.3199C49.1607 45.7676 49.0029 45.2152 48.7661 44.7417L48.6872 44.505L48.924 44.4261C50.4232 44.0316 51.4491 42.6112 51.4491 41.1119C51.4491 40.3228 51.2123 39.6126 50.7389 39.0603L50.66 38.9813V25.2511C50.66 24.7776 50.2654 24.3831 49.792 24.3831C49.3185 24.3831 48.924 24.7776 48.924 25.2511V37.7977L48.6872 37.7188C48.4505 37.6399 48.2138 37.6399 47.977 37.6399H47.6614L47.7403 37.3242C47.977 36.8508 48.056 36.3773 48.056 35.9039C48.056 34.01 46.4778 32.4319 44.5839 32.4319H41.8221L42.769 32.0373C44.5839 31.2482 45.7676 29.4333 45.7676 27.4605C45.7676 24.6987 43.5581 22.4892 40.7963 22.4892C38.0344 22.4892 35.825 24.6987 35.825 27.4605C35.825 29.4333 37.0086 31.2482 38.8235 32.0373L39.7704 32.4319H32.6686V11.5208H32.8264C34.7202 11.1263 36.1406 9.62697 36.5352 7.81205V7.65423H44.9785V7.81205C45.373 9.70588 46.8723 11.1263 48.6872 11.5208H48.8451V25.4878C48.8451 25.9613 49.2396 26.3558 49.7131 26.3558C50.1865 26.3558 50.5811 25.9613 50.5811 25.4878V10.7317C50.5811 10.2583 50.1865 9.8637 49.7131 9.8637C47.977 9.8637 46.5567 8.44333 46.5567 6.70732C46.5567 6.23386 46.1621 5.83931 45.6887 5.83931H35.825C35.3515 5.83931 34.957 6.23386 34.957 6.70732C34.957 8.44333 33.5366 9.8637 31.8006 9.8637C31.3271 9.8637 30.9326 10.2583 30.9326 10.7317V32.5108H28.4075V1.73601H53.264V53.264ZM40.7963 30.7747C38.9813 30.7747 37.561 29.3544 37.561 27.5395C37.561 25.7245 38.9813 24.3042 40.7963 24.3042C42.6112 24.3042 44.0316 25.7245 44.0316 27.5395C44.0316 29.3544 42.6112 30.7747 40.7963 30.7747Z" fill="url(#paint0_linear)"/>
<defs>
<linearGradient id="paint0_linear" x1="1.00616e-08" y1="22.6541" x2="32.5352" y2="22.6541" gradientUnits="userSpaceOnUse">
<stop stop-color="#E24C91"/>
<stop offset="1" stop-color="#A24DDD"/>
</linearGradient>
</defs>
</svg>
