<svg width="55" height="57" viewBox="0 0 55 57" fill="none" xmlns="http://www.w3.org/2000/svg">
<path fill-rule="evenodd" clip-rule="evenodd" d="M28.3185 37.836C28.3185 38.07 28.3185 38.3821 28.2405 38.6161C36.8218 39.7083 43.4529 47.0415 43.3749 55.8569C43.3749 56.3249 42.9848 56.715 42.5168 56.715H0.858136C0.390062 56.715 0 56.3249 0 55.8569C0 46.9635 6.70907 39.5523 15.3684 38.6161C15.2904 38.3821 15.2904 38.07 15.2904 37.836V36.1197C13.5742 34.9495 12.1699 33.2333 11.3118 31.283C8.58136 31.283 6.39702 29.0206 6.39702 26.2902V25.9001V25.7441V15.4465C6.39702 6.9431 13.2621 0 21.7655 0C30.2688 0 37.2119 6.9431 37.2899 15.4465V25.7441V26.2122C37.2899 28.9426 35.0276 31.205 32.2971 31.205H32.1411C31.283 33.1553 29.9568 34.7935 28.3185 35.9637V37.836ZM32.9992 26.8363C32.9992 27.6944 32.9212 28.5525 32.6872 29.4107C34.2474 29.1766 35.4956 27.8504 35.4176 26.2902C35.4176 24.8079 34.4035 23.4817 32.9992 23.1697V23.2477V26.8363ZM35.4176 15.4465C35.4176 7.95726 29.3327 1.79428 21.7655 1.79428C14.2763 1.79428 8.11329 7.87925 8.11329 15.3684V22.3896C8.73739 21.8435 9.4395 21.4534 10.2976 21.2974V17.2407C10.2976 17.0067 10.4537 16.6946 10.6877 16.5386C10.8437 16.4606 10.9997 16.3826 11.1558 16.3826C11.3118 16.3826 11.4678 16.3826 11.6238 16.4606C13.3401 17.1627 15.0564 17.4748 16.8507 17.4748C17.3187 17.4748 17.7868 17.4748 18.2549 17.3968C21.6874 17.0847 24.964 15.4465 27.3043 12.872C27.4604 12.638 27.6944 12.56 27.9284 12.56C28.1625 12.56 28.4745 12.638 28.6305 12.794C30.4248 14.4323 31.9071 16.3046 32.9212 18.4889C32.9992 18.645 32.9992 18.723 32.9992 18.879V21.2974C33.9354 21.4534 34.7155 21.8435 35.4176 22.3896V15.4465ZM10.4537 23.1697C9.12745 23.5597 8.1913 24.8079 8.1913 26.2122C8.1913 27.7724 9.28347 29.0986 10.8437 29.3327C10.6097 28.5525 10.5317 27.6164 10.5317 26.7582V23.3257C10.4868 23.2808 10.4677 23.2618 10.4596 23.2388C10.4537 23.2219 10.4537 23.2028 10.4537 23.1697ZM12.2479 22.3115V26.7582C12.2479 31.9851 16.4606 36.2758 21.6874 36.2758C26.9143 36.2758 31.205 31.9851 31.205 26.7582V23.4037C31.1269 23.2477 31.1269 23.1697 31.1269 23.0137V19.035C30.3468 17.3968 29.2546 15.9145 28.0064 14.6663C25.354 17.1627 21.9215 18.801 18.3329 19.113C17.8648 19.191 17.3187 19.191 16.7727 19.191C15.2904 19.191 13.7302 18.957 12.2479 18.4889V21.8435C12.326 21.9215 12.326 21.9995 12.326 22.0775C12.326 22.1165 12.3065 22.1555 12.287 22.1945C12.2674 22.2335 12.2479 22.2725 12.2479 22.3115ZM26.6022 36.9779C25.12 37.68 23.4817 38.07 21.7655 38.07C20.0492 38.07 18.4889 37.68 17.1627 37.0559V37.836C17.1627 39.7083 18.723 41.2685 20.5953 41.2685H23.1697C25.042 41.2685 26.6022 39.7083 26.6022 37.836V36.9779ZM20.5173 42.9848C18.4889 42.9848 16.7727 41.8926 15.9145 40.2544C8.26931 41.0345 2.26236 47.2755 1.79428 54.9207H8.8154L9.28347 48.2116C9.28347 47.7436 9.75155 47.4315 10.2196 47.4315C10.6877 47.4315 10.9997 47.8996 10.9997 48.3677L10.5317 54.9207H20.8293V42.9848H20.5173ZM34.4035 48.2116L35.0276 54.9207H41.7366C41.2686 47.2755 35.3396 41.0345 27.6944 40.2544C26.7582 41.8926 25.042 42.9848 23.0917 42.9848H22.6236V54.9207H33.3113L32.6872 48.3677C32.6092 47.8996 32.9992 47.5095 33.4673 47.4315C33.9354 47.3535 34.3254 47.7436 34.4035 48.2116ZM54.8427 22.3895L54.9987 32.8431C55.0767 37.4459 51.5662 41.2685 46.8854 41.6585C46.8074 42.0486 46.5734 42.3606 46.3394 42.5947C45.8713 43.0628 45.2472 43.3748 44.5451 43.3748C43.843 43.3748 43.1408 43.0628 42.6728 42.5947C42.2047 42.1266 41.8926 41.5025 41.8926 40.8004L41.8146 34.7934C41.8146 33.3112 42.9848 32.141 44.389 32.141C45.1692 32.063 45.8713 32.3751 46.3394 32.8431L46.8074 33.5452C48.1336 33.2332 49.1478 32.063 49.1478 30.5808L49.0698 25.432C49.0698 24.0277 47.9776 22.7795 46.5734 22.5455C46.1833 23.3256 45.3252 23.9497 44.311 23.9497C42.8288 23.9497 41.6586 22.7795 41.6586 21.3753L41.5806 15.3684C41.5806 13.8861 42.7508 12.7159 44.155 12.7159C44.9351 12.7159 45.6372 12.95 46.1053 13.4181C46.1443 13.4571 46.1833 13.5156 46.2223 13.5741C46.2613 13.6326 46.3003 13.6911 46.3394 13.7301C51.0201 13.8861 54.7647 17.7087 54.8427 22.3895ZM43.3749 21.2973C43.3749 21.7654 43.7649 22.1554 44.233 22.1554C44.7791 22.1554 45.1692 21.7654 45.0131 21.2973L44.9351 15.2904C44.9351 15.0563 44.8571 14.8223 44.7011 14.6663C44.5451 14.5102 44.389 14.4322 44.155 14.4322C43.6869 14.4322 43.2969 14.8223 43.2969 15.2904L43.3749 21.2973ZM44.5451 41.5805C44.7791 41.5805 45.0131 41.5025 45.1692 41.3465C45.3252 41.1905 45.4032 40.9564 45.3252 40.6444L45.2472 35.5736V34.6374C45.2472 34.4814 45.1692 34.2474 45.0131 34.0913C44.8571 33.9353 44.7011 33.8573 44.4671 33.8573C43.999 33.8573 43.6089 34.2474 43.6089 34.7154L43.6869 40.7224C43.6869 40.9564 43.7649 41.1905 43.921 41.3465C44.077 41.5025 44.311 41.5805 44.5451 41.5805ZM47.1195 35.5736L47.1975 39.8643C50.63 39.3962 53.2825 36.4317 53.2825 32.9212L53.1264 22.4675C53.0484 18.8789 50.318 15.9925 46.8854 15.6024V20.7512C49.1478 21.1413 50.8641 23.0916 50.8641 25.432L50.9421 30.5808C50.9421 32.9212 49.3038 34.8715 47.1195 35.3395V35.5736ZM40.9565 32.7651C41.1905 32.7651 41.4246 32.6871 41.5806 32.5311C41.9707 32.2191 41.9707 31.673 41.6586 31.2829C40.8785 30.4248 40.4104 29.2546 40.4884 28.0844C40.4884 26.9142 41.0345 25.822 41.8926 24.9639C42.2827 24.6519 42.2827 24.1058 41.9707 23.7157C41.6586 23.3256 41.1125 23.3256 40.7225 23.6377C38.2261 25.9781 38.07 29.8787 40.4104 32.3751C40.4884 32.6091 40.7225 32.7651 40.9565 32.7651ZM42.6728 26.1342C43.0628 25.8221 43.6089 25.8221 43.921 26.2122C44.233 26.6022 44.233 27.1483 43.921 27.4604C43.7649 27.6164 43.6089 27.8504 43.6089 28.1625C43.6089 28.4745 43.7649 28.7086 43.921 28.9426C44.233 29.3327 44.233 29.8787 43.843 30.1908C43.6869 30.3468 43.4529 30.4248 43.2189 30.4248C42.9848 30.4248 42.7508 30.2688 42.5948 30.1128C42.0487 29.5667 41.8146 28.8646 41.8146 28.0845C41.8146 27.3824 42.1267 26.6802 42.6728 26.1342Z" fill="url(#paint0_linear)"/>
<defs>
<linearGradient id="paint0_linear" x1="1.00616e-08" y1="23.2937" x2="32.5352" y2="23.2937" gradientUnits="userSpaceOnUse">
<stop stop-color="#E24C91"/>
<stop offset="1" stop-color="#A24DDD"/>
</linearGradient>
</defs>
</svg>
