<svg width="860" height="51" viewBox="0 0 860 51" fill="none" xmlns="http://www.w3.org/2000/svg">
<path d="M859 0C859 14.3722 843.158 26 823.578 26H36.422C16.8415 26 1 14.3722 1 0" stroke="#CBCBCB" stroke-miterlimit="10" stroke-dasharray="4 5"/>
<circle cx="665.5" cy="25.5" r="17" fill="white" stroke="#CBCBCB"/>
<path opacity="0.6" d="M665.526 27.28V22.435H665.496L662.151 27.25V27.28H665.526ZM667.146 27.28H668.901V28.6H667.146V31H665.526V28.6H660.501V27.28L665.526 20.05H667.146V27.28Z" fill="#343132"/>
<circle cx="428.5" cy="25.5" r="17" fill="white" stroke="#CBCBCB"/>
<path opacity="0.6" d="M424.551 20.05H431.301V21.4L428.076 24.535V24.565H428.376C429.346 24.565 430.101 24.825 430.641 25.345C431.181 25.855 431.451 26.59 431.451 27.55C431.451 28.69 431.101 29.575 430.401 30.205C429.711 30.835 428.736 31.15 427.476 31.15C426.386 31.15 425.411 30.9 424.551 30.4L425.001 29.05C425.911 29.55 426.736 29.8 427.476 29.8C428.216 29.8 428.786 29.605 429.186 29.215C429.596 28.825 429.801 28.27 429.801 27.55C429.801 26.94 429.581 26.49 429.141 26.2C428.711 25.9 428.006 25.75 427.026 25.75H425.976V24.49L429.201 21.43V21.4H424.551V20.05Z" fill="#343132"/>
<circle cx="193.5" cy="25.5" r="17" fill="white" stroke="#CBCBCB"/>
<path opacity="0.6" d="M192.926 19.9C194.046 19.9 194.911 20.18 195.521 20.74C196.141 21.29 196.451 22.06 196.451 23.05C196.451 24.05 196.131 25.015 195.491 25.945C194.861 26.875 193.631 28.1 191.801 29.62V29.65H196.451V31H189.551V29.65C191.591 28.03 192.966 26.765 193.676 25.855C194.386 24.935 194.741 24.05 194.741 23.2C194.741 21.92 194.061 21.28 192.701 21.28C191.791 21.28 190.841 21.61 189.851 22.27L189.401 20.95C190.431 20.25 191.606 19.9 192.926 19.9Z" fill="#343132"/>
</svg>
