<svg width="41" height="41" viewBox="0 0 41 41" fill="none" xmlns="http://www.w3.org/2000/svg">
<circle cx="20.5" cy="20.5" r="19.5" stroke="#CBCBCB"/>
<path d="M23.5308 13H17.4692C15.0033 13 13 15.0033 13 17.4692V23.5308C13 25.994 15.0033 27.9973 17.4692 27.9973H23.5308C25.994 27.9973 28 25.994 28 23.528V17.4692C27.9973 15.0033 25.994 13 23.5308 13ZM20.4986 25.0849C17.9701 25.0849 15.9124 23.0272 15.9124 20.4986C15.9124 17.9701 17.9701 15.9124 20.4986 15.9124C23.0272 15.9124 25.0849 17.9701 25.0849 20.4986C25.0849 23.0272 23.0272 25.0849 20.4986 25.0849ZM25.1203 16.7806C24.6059 16.7806 24.1922 16.3642 24.1922 15.8525C24.1922 15.3408 24.6086 14.9216 25.1203 14.9216C25.632 14.9216 26.0512 15.3381 26.0512 15.8525C26.0512 16.3669 25.6347 16.7806 25.1203 16.7806Z" fill="#343132"/>
<path d="M20.4988 23.2451C22.0155 23.2451 23.2451 22.0155 23.2451 20.4988C23.2451 18.982 22.0155 17.7524 20.4988 17.7524C18.982 17.7524 17.7524 18.982 17.7524 20.4988C17.7524 22.0155 18.982 23.2451 20.4988 23.2451Z" fill="#343132"/>
<path d="M20.4988 23.2451C22.0155 23.2451 23.2451 22.0155 23.2451 20.4988C23.2451 18.982 22.0155 17.7524 20.4988 17.7524C18.982 17.7524 17.7524 18.982 17.7524 20.4988C17.7524 22.0155 18.982 23.2451 20.4988 23.2451Z" fill="#343132"/>
<path d="M20.4988 23.2451C22.0155 23.2451 23.2451 22.0155 23.2451 20.4988C23.2451 18.982 22.0155 17.7524 20.4988 17.7524C18.982 17.7524 17.7524 18.982 17.7524 20.4988C17.7524 22.0155 18.982 23.2451 20.4988 23.2451Z" fill="#343132"/>
</svg>
