<svg width="283" height="61" viewBox="0 0 283 61" fill="none" xmlns="http://www.w3.org/2000/svg">
<path d="M2.716 56.062H7.392V47.718H3.752C3.752 50.0233 3.73333 51.596 3.696 52.436C3.65867 53.2667 3.57467 53.9293 3.444 54.424C3.32267 54.9093 3.08 55.4553 2.716 56.062ZM1.428 56.062C1.848 55.4553 2.128 54.9233 2.268 54.466C2.41733 54.0087 2.52 53.3367 2.576 52.45C2.632 51.554 2.66 49.9767 2.66 47.718V46.78H8.512V56.062H9.688V59.24H8.652V57H1.652V59.24H0.63V56.062H1.428ZM16.3283 51.204C15.9083 50.6813 15.3296 50.42 14.5923 50.42C13.8549 50.42 13.2716 50.6813 12.8423 51.204C12.4223 51.7173 12.2123 52.436 12.2123 53.36C12.2123 54.284 12.4223 55.0073 12.8423 55.53C13.2716 56.0433 13.8549 56.3 14.5923 56.3C15.3296 56.3 15.9083 56.0433 16.3283 55.53C16.7576 55.0073 16.9723 54.284 16.9723 53.36C16.9723 52.436 16.7576 51.7173 16.3283 51.204ZM17.0843 56.118C16.4589 56.7993 15.6283 57.14 14.5923 57.14C13.5563 57.14 12.7256 56.7993 12.1003 56.118C11.4749 55.4367 11.1623 54.5173 11.1623 53.36C11.1623 52.2027 11.4749 51.2833 12.1003 50.602C12.7256 49.9207 13.5563 49.58 14.5923 49.58C15.6283 49.58 16.4589 49.9207 17.0843 50.602C17.7096 51.2833 18.0223 52.2027 18.0223 53.36C18.0223 54.5173 17.7096 55.4367 17.0843 56.118ZM23.1086 50.434C22.2873 50.434 21.648 50.6907 21.1906 51.204C20.7333 51.708 20.5046 52.4267 20.5046 53.36C20.5046 54.256 20.7426 54.97 21.2186 55.502C21.704 56.034 22.334 56.3 23.1086 56.3C23.762 56.3 24.3873 56.1413 24.9846 55.824L25.2646 56.65C24.5646 56.9767 23.832 57.14 23.0666 57.14C21.984 57.14 21.1066 56.7993 20.4346 56.118C19.7626 55.4273 19.4266 54.508 19.4266 53.36C19.4266 52.1747 19.7486 51.2507 20.3926 50.588C21.0366 49.916 21.928 49.58 23.0666 49.58C23.832 49.58 24.5646 49.7433 25.2646 50.07L24.9846 50.924C24.3593 50.5973 23.734 50.434 23.1086 50.434ZM33.5171 50.574H30.8571V57H29.7511V50.574H27.0911V49.72H33.5171V50.574ZM38.1347 49.58C39.152 49.58 39.88 49.79 40.3187 50.21C40.7574 50.63 40.9767 51.3207 40.9767 52.282V55.04C40.9767 55.7027 41.0467 56.356 41.1867 57H40.2067C40.132 56.636 40.0854 56.2067 40.0667 55.712H40.0387C39.7867 56.16 39.4227 56.51 38.9467 56.762C38.4707 57.014 37.934 57.14 37.3367 57.14C36.6647 57.14 36.128 56.9533 35.7267 56.58C35.3254 56.1973 35.1247 55.684 35.1247 55.04C35.1247 54.228 35.4794 53.584 36.1887 53.108C36.898 52.6227 37.906 52.38 39.2127 52.38H39.9547V52.31C39.9547 51.6007 39.8194 51.1107 39.5487 50.84C39.2874 50.56 38.816 50.42 38.1347 50.42C37.2574 50.42 36.4407 50.6347 35.6847 51.064L35.5027 50.238C36.3054 49.7993 37.1827 49.58 38.1347 49.58ZM36.1327 54.998C36.1327 55.418 36.2634 55.7493 36.5247 55.992C36.786 56.2253 37.136 56.342 37.5747 56.342C38.2187 56.342 38.774 56.1133 39.2407 55.656C39.7167 55.1893 39.9547 54.62 39.9547 53.948V53.164H39.2127C38.2327 53.164 37.472 53.332 36.9307 53.668C36.3987 53.9947 36.1327 54.438 36.1327 54.998ZM44.4886 56.272C44.8339 56.328 45.2119 56.356 45.6226 56.356C47.1813 56.356 47.9606 55.8473 47.9606 54.83C47.9606 53.906 47.1346 53.444 45.4826 53.444H44.4886V56.272ZM44.4886 52.744H45.4686C46.1406 52.744 46.6633 52.632 47.0366 52.408C47.4099 52.184 47.5966 51.876 47.5966 51.484C47.5966 50.7373 46.9106 50.364 45.5386 50.364C45.1746 50.364 44.8246 50.392 44.4886 50.448V52.744ZM48.9966 54.9C48.9966 56.3653 47.8579 57.098 45.5806 57.098C44.7499 57.098 44.0313 57.0467 43.4246 56.944V49.776C44.0873 49.6733 44.7686 49.622 45.4686 49.622C46.5979 49.622 47.4006 49.79 47.8766 50.126C48.3619 50.4527 48.6046 50.8727 48.6046 51.386C48.6046 51.806 48.4599 52.1607 48.1706 52.45C47.8813 52.73 47.4753 52.926 46.9526 53.038V53.052C47.6153 53.1547 48.1193 53.3693 48.4646 53.696C48.8193 54.0133 48.9966 54.4147 48.9966 54.9ZM52.0567 52.8L55.5707 49.72H56.9147L52.8687 53.206L57.0267 57H55.6967L52.0567 53.626H52.0427V57H50.9507V49.72H52.0427V52.8H52.0567ZM61.6427 49.58C62.66 49.58 63.388 49.79 63.8267 50.21C64.2653 50.63 64.4847 51.3207 64.4847 52.282V55.04C64.4847 55.7027 64.5547 56.356 64.6947 57H63.7147C63.64 56.636 63.5933 56.2067 63.5747 55.712H63.5467C63.2947 56.16 62.9307 56.51 62.4547 56.762C61.9787 57.014 61.442 57.14 60.8447 57.14C60.1727 57.14 59.636 56.9533 59.2347 56.58C58.8333 56.1973 58.6327 55.684 58.6327 55.04C58.6327 54.228 58.9873 53.584 59.6967 53.108C60.406 52.6227 61.414 52.38 62.7207 52.38H63.4627V52.31C63.4627 51.6007 63.3273 51.1107 63.0567 50.84C62.7953 50.56 62.324 50.42 61.6427 50.42C60.7653 50.42 59.9487 50.6347 59.1927 51.064L59.0107 50.238C59.8133 49.7993 60.6907 49.58 61.6427 49.58ZM59.6407 54.998C59.6407 55.418 59.7713 55.7493 60.0327 55.992C60.294 56.2253 60.644 56.342 61.0827 56.342C61.7267 56.342 62.282 56.1133 62.7487 55.656C63.2247 55.1893 63.4627 54.62 63.4627 53.948V53.164H62.7207C61.7407 53.164 60.98 53.332 60.4387 53.668C59.9067 53.9947 59.6407 54.438 59.6407 54.998ZM77.2791 50.574H74.6191V57H73.5131V50.574H70.8531V49.72H77.2791V50.574ZM83.9127 51.204C83.4927 50.6813 82.9141 50.42 82.1767 50.42C81.4394 50.42 80.8561 50.6813 80.4267 51.204C80.0067 51.7173 79.7967 52.436 79.7967 53.36C79.7967 54.284 80.0067 55.0073 80.4267 55.53C80.8561 56.0433 81.4394 56.3 82.1767 56.3C82.9141 56.3 83.4927 56.0433 83.9127 55.53C84.3421 55.0073 84.5567 54.284 84.5567 53.36C84.5567 52.436 84.3421 51.7173 83.9127 51.204ZM84.6687 56.118C84.0434 56.7993 83.2127 57.14 82.1767 57.14C81.1407 57.14 80.3101 56.7993 79.6847 56.118C79.0594 55.4367 78.7467 54.5173 78.7467 53.36C78.7467 52.2027 79.0594 51.2833 79.6847 50.602C80.3101 49.9207 81.1407 49.58 82.1767 49.58C83.2127 49.58 84.0434 49.9207 84.6687 50.602C85.2941 51.2833 85.6067 52.2027 85.6067 53.36C85.6067 54.5173 85.2941 55.4367 84.6687 56.118ZM88.5651 56.272C88.9104 56.328 89.2884 56.356 89.6991 56.356C91.2578 56.356 92.0371 55.8473 92.0371 54.83C92.0371 53.906 91.2111 53.444 89.5591 53.444H88.5651V56.272ZM88.5651 52.744H89.5451C90.2171 52.744 90.7398 52.632 91.1131 52.408C91.4864 52.184 91.6731 51.876 91.6731 51.484C91.6731 50.7373 90.9871 50.364 89.6151 50.364C89.2511 50.364 88.9011 50.392 88.5651 50.448V52.744ZM93.0731 54.9C93.0731 56.3653 91.9344 57.098 89.6571 57.098C88.8264 57.098 88.1078 57.0467 87.5011 56.944V49.776C88.1638 49.6733 88.8451 49.622 89.5451 49.622C90.6744 49.622 91.4771 49.79 91.9531 50.126C92.4384 50.4527 92.6811 50.8727 92.6811 51.386C92.6811 51.806 92.5364 52.1607 92.2471 52.45C91.9578 52.73 91.5518 52.926 91.0291 53.038V53.052C91.6918 53.1547 92.1958 53.3693 92.5411 53.696C92.8958 54.0133 93.0731 54.4147 93.0731 54.9ZM97.6872 49.58C98.7045 49.58 99.4325 49.79 99.8712 50.21C100.31 50.63 100.529 51.3207 100.529 52.282V55.04C100.529 55.7027 100.599 56.356 100.739 57H99.7592C99.6845 56.636 99.6379 56.2067 99.6192 55.712H99.5912C99.3392 56.16 98.9752 56.51 98.4992 56.762C98.0232 57.014 97.4865 57.14 96.8892 57.14C96.2172 57.14 95.6805 56.9533 95.2792 56.58C94.8779 56.1973 94.6772 55.684 94.6772 55.04C94.6772 54.228 95.0319 53.584 95.7412 53.108C96.4505 52.6227 97.4585 52.38 98.7652 52.38H99.5072V52.31C99.5072 51.6007 99.3719 51.1107 99.1012 50.84C98.8399 50.56 98.3685 50.42 97.6872 50.42C96.8099 50.42 95.9932 50.6347 95.2372 51.064L95.0552 50.238C95.8579 49.7993 96.7352 49.58 97.6872 49.58ZM95.6852 54.998C95.6852 55.418 95.8159 55.7493 96.0772 55.992C96.3385 56.2253 96.6885 56.342 97.1272 56.342C97.7712 56.342 98.3265 56.1133 98.7932 55.656C99.2692 55.1893 99.5072 54.62 99.5072 53.948V53.164H98.7652C97.7852 53.164 97.0245 53.332 96.4832 53.668C95.9512 53.9947 95.6852 54.438 95.6852 54.998ZM106.379 57.14C105.324 57.14 104.54 56.7153 104.027 55.866H103.999V60.08H102.977V49.72H103.957L103.971 50.952H103.999C104.512 50.0373 105.306 49.58 106.379 49.58C107.294 49.58 108.012 49.9067 108.535 50.56C109.058 51.204 109.319 52.1373 109.319 53.36C109.319 54.5547 109.048 55.4833 108.507 56.146C107.975 56.8087 107.266 57.14 106.379 57.14ZM108.311 53.36C108.311 52.408 108.12 51.68 107.737 51.176C107.364 50.672 106.836 50.42 106.155 50.42C105.511 50.42 104.988 50.672 104.587 51.176C104.195 51.68 103.999 52.3753 103.999 53.262V53.458C103.999 54.3633 104.2 55.0633 104.601 55.558C105.002 56.0527 105.52 56.3 106.155 56.3C106.818 56.3 107.34 56.048 107.723 55.544C108.115 55.0307 108.311 54.3027 108.311 53.36ZM115.958 51.204C115.538 50.6813 114.96 50.42 114.222 50.42C113.485 50.42 112.902 50.6813 112.472 51.204C112.052 51.7173 111.842 52.436 111.842 53.36C111.842 54.284 112.052 55.0073 112.472 55.53C112.902 56.0433 113.485 56.3 114.222 56.3C114.96 56.3 115.538 56.0433 115.958 55.53C116.388 55.0073 116.602 54.284 116.602 53.36C116.602 52.436 116.388 51.7173 115.958 51.204ZM116.714 56.118C116.089 56.7993 115.258 57.14 114.222 57.14C113.186 57.14 112.356 56.7993 111.73 56.118C111.105 55.4367 110.792 54.5173 110.792 53.36C110.792 52.2027 111.105 51.2833 111.73 50.602C112.356 49.9207 113.186 49.58 114.222 49.58C115.258 49.58 116.089 49.9207 116.714 50.602C117.34 51.2833 117.652 52.2027 117.652 53.36C117.652 54.5173 117.34 55.4367 116.714 56.118ZM120.611 56.272C120.956 56.328 121.334 56.356 121.745 56.356C123.304 56.356 124.083 55.8473 124.083 54.83C124.083 53.906 123.257 53.444 121.605 53.444H120.611V56.272ZM120.611 52.744H121.591C122.263 52.744 122.786 52.632 123.159 52.408C123.532 52.184 123.719 51.876 123.719 51.484C123.719 50.7373 123.033 50.364 121.661 50.364C121.297 50.364 120.947 50.392 120.611 50.448V52.744ZM125.119 54.9C125.119 56.3653 123.98 57.098 121.703 57.098C120.872 57.098 120.154 57.0467 119.547 56.944V49.776C120.21 49.6733 120.891 49.622 121.591 49.622C122.72 49.622 123.523 49.79 123.999 50.126C124.484 50.4527 124.727 50.8727 124.727 51.386C124.727 51.806 124.582 52.1607 124.293 52.45C124.004 52.73 123.598 52.926 123.075 53.038V53.052C123.738 53.1547 124.242 53.3693 124.587 53.696C124.942 54.0133 125.119 54.4147 125.119 54.9ZM132.52 52.8L136.034 49.72H137.378L133.332 53.206L137.49 57H136.16L132.52 53.626H132.506V57H131.414V49.72H132.506V52.8H132.52ZM144.653 49.72H145.773L142.945 57C142.46 58.2507 141.942 59.1 141.391 59.548C140.841 59.996 140.061 60.22 139.053 60.22L138.997 59.366C139.753 59.366 140.337 59.2027 140.747 58.876C141.158 58.5587 141.545 57.9333 141.909 57L138.955 49.72H140.103L142.441 55.754H142.469L144.653 49.72ZM150.989 57.14C149.934 57.14 149.15 56.7153 148.637 55.866H148.609V60.08H147.587V49.72H148.567L148.581 50.952H148.609C149.122 50.0373 149.915 49.58 150.989 49.58C151.903 49.58 152.622 49.9067 153.145 50.56C153.667 51.204 153.929 52.1373 153.929 53.36C153.929 54.5547 153.658 55.4833 153.117 56.146C152.585 56.8087 151.875 57.14 150.989 57.14ZM152.921 53.36C152.921 52.408 152.729 51.68 152.347 51.176C151.973 50.672 151.446 50.42 150.765 50.42C150.121 50.42 149.598 50.672 149.197 51.176C148.805 51.68 148.609 52.3753 148.609 53.262V53.458C148.609 54.3633 148.809 55.0633 149.211 55.558C149.612 56.0527 150.13 56.3 150.765 56.3C151.427 56.3 151.95 56.048 152.333 55.544C152.725 55.0307 152.921 54.3027 152.921 53.36ZM155.892 49.72H156.914V51.96C157.316 51.8853 157.745 51.848 158.202 51.848C159.304 51.848 160.139 52.0767 160.708 52.534C161.278 52.982 161.562 53.6073 161.562 54.41C161.562 56.23 160.396 57.14 158.062 57.14C157.288 57.14 156.564 57.07 155.892 56.93V49.72ZM156.914 52.8V56.174C157.288 56.258 157.694 56.3 158.132 56.3C159.747 56.3 160.554 55.67 160.554 54.41C160.554 53.262 159.724 52.688 158.062 52.688C157.652 52.688 157.269 52.7253 156.914 52.8ZM164.006 52.94H168.486C168.476 52.128 168.28 51.5027 167.898 51.064C167.515 50.6253 166.988 50.406 166.316 50.406C165.616 50.406 165.06 50.63 164.65 51.078C164.248 51.5167 164.034 52.1373 164.006 52.94ZM164.006 53.752C164.024 54.5453 164.267 55.1707 164.734 55.628C165.2 56.0853 165.807 56.314 166.554 56.314C167.272 56.314 167.986 56.1273 168.696 55.754L168.976 56.552C168.192 56.944 167.352 57.14 166.456 57.14C165.41 57.14 164.566 56.7993 163.922 56.118C163.278 55.4367 162.956 54.5173 162.956 53.36C162.956 52.184 163.254 51.26 163.852 50.588C164.458 49.916 165.28 49.58 166.316 49.58C167.324 49.58 168.103 49.902 168.654 50.546C169.214 51.1807 169.494 52.0953 169.494 53.29C169.494 53.4113 169.484 53.5653 169.466 53.752H164.006ZM174.852 57.14C173.798 57.14 173.014 56.7153 172.5 55.866H172.472V60.08H171.45V49.72H172.43L172.444 50.952H172.472C172.986 50.0373 173.779 49.58 174.852 49.58C175.767 49.58 176.486 49.9067 177.008 50.56C177.531 51.204 177.792 52.1373 177.792 53.36C177.792 54.5547 177.522 55.4833 176.98 56.146C176.448 56.8087 175.739 57.14 174.852 57.14ZM176.784 53.36C176.784 52.408 176.593 51.68 176.21 51.176C175.837 50.672 175.31 50.42 174.628 50.42C173.984 50.42 173.462 50.672 173.06 51.176C172.668 51.68 172.472 52.3753 172.472 53.262V53.458C172.472 54.3633 172.673 55.0633 173.074 55.558C173.476 56.0527 173.994 56.3 174.628 56.3C175.291 56.3 175.814 56.048 176.196 55.544C176.588 55.0307 176.784 54.3027 176.784 53.36ZM184.432 51.204C184.012 50.6813 183.433 50.42 182.696 50.42C181.958 50.42 181.375 50.6813 180.946 51.204C180.526 51.7173 180.316 52.436 180.316 53.36C180.316 54.284 180.526 55.0073 180.946 55.53C181.375 56.0433 181.958 56.3 182.696 56.3C183.433 56.3 184.012 56.0433 184.432 55.53C184.861 55.0073 185.076 54.284 185.076 53.36C185.076 52.436 184.861 51.7173 184.432 51.204ZM185.188 56.118C184.562 56.7993 183.732 57.14 182.696 57.14C181.66 57.14 180.829 56.7993 180.204 56.118C179.578 55.4367 179.266 54.5173 179.266 53.36C179.266 52.2027 179.578 51.2833 180.204 50.602C180.829 49.9207 181.66 49.58 182.696 49.58C183.732 49.58 184.562 49.9207 185.188 50.602C185.813 51.2833 186.126 52.2027 186.126 53.36C186.126 54.5173 185.813 55.4367 185.188 56.118ZM195.09 51.12L192.556 54.844H191.618L189.084 51.12H189.056V57H188.02V49.72H189.252L192.08 54.06H192.094L194.922 49.72H196.168V57H195.118V51.12H195.09ZM203.986 53.5V57H202.894V49.72H203.986V52.688H208.116V49.72H209.208V57H208.116V53.5H203.986ZM214.243 49.58C215.26 49.58 215.988 49.79 216.427 50.21C216.865 50.63 217.085 51.3207 217.085 52.282V55.04C217.085 55.7027 217.155 56.356 217.295 57H216.315C216.24 56.636 216.193 56.2067 216.175 55.712H216.147C215.895 56.16 215.531 56.51 215.055 56.762C214.579 57.014 214.042 57.14 213.445 57.14C212.773 57.14 212.236 56.9533 211.835 56.58C211.433 56.1973 211.233 55.684 211.233 55.04C211.233 54.228 211.587 53.584 212.297 53.108C213.006 52.6227 214.014 52.38 215.321 52.38H216.063V52.31C216.063 51.6007 215.927 51.1107 215.657 50.84C215.395 50.56 214.924 50.42 214.243 50.42C213.365 50.42 212.549 50.6347 211.793 51.064L211.611 50.238C212.413 49.7993 213.291 49.58 214.243 49.58ZM212.241 54.998C212.241 55.418 212.371 55.7493 212.633 55.992C212.894 56.2253 213.244 56.342 213.683 56.342C214.327 56.342 214.882 56.1133 215.349 55.656C215.825 55.1893 216.063 54.62 216.063 53.948V53.164H215.321C214.341 53.164 213.58 53.332 213.039 53.668C212.507 53.9947 212.241 54.438 212.241 54.998ZM225.273 56.16H229.123V50.56H226.113C226.113 51.4467 226.113 52.0673 226.113 52.422C226.113 52.7767 226.099 53.192 226.071 53.668C226.052 54.1347 226.029 54.438 226.001 54.578C225.982 54.7087 225.936 54.8953 225.861 55.138C225.786 55.3807 225.707 55.558 225.623 55.67C225.548 55.7727 225.432 55.936 225.273 56.16ZM224.055 56.16C224.26 55.908 224.405 55.7307 224.489 55.628C224.573 55.516 224.666 55.3387 224.769 55.096C224.872 54.844 224.932 54.6527 224.951 54.522C224.979 54.382 225.007 54.088 225.035 53.64C225.072 53.1827 225.091 52.772 225.091 52.408C225.091 52.0347 225.091 51.4187 225.091 50.56V49.72H230.145V56.16H231.125V58.68H230.103V57H224.405V58.68H223.383V56.16H224.055ZM237.688 51.204C237.268 50.6813 236.69 50.42 235.952 50.42C235.215 50.42 234.632 50.6813 234.202 51.204C233.782 51.7173 233.572 52.436 233.572 53.36C233.572 54.284 233.782 55.0073 234.202 55.53C234.632 56.0433 235.215 56.3 235.952 56.3C236.69 56.3 237.268 56.0433 237.688 55.53C238.118 55.0073 238.332 54.284 238.332 53.36C238.332 52.436 238.118 51.7173 237.688 51.204ZM238.444 56.118C237.819 56.7993 236.988 57.14 235.952 57.14C234.916 57.14 234.086 56.7993 233.46 56.118C232.835 55.4367 232.522 54.5173 232.522 53.36C232.522 52.2027 232.835 51.2833 233.46 50.602C234.086 49.9207 234.916 49.58 235.952 49.58C236.988 49.58 237.819 49.9207 238.444 50.602C239.07 51.2833 239.382 52.2027 239.382 53.36C239.382 54.5173 239.07 55.4367 238.444 56.118ZM248.347 51.12L245.813 54.844H244.875L242.341 51.12H242.313V57H241.277V49.72H242.509L245.337 54.06H245.351L248.179 49.72H249.425V57H248.375V51.12H248.347ZM252.091 57V55.04H253.393V57H252.091Z" fill="#343132"/>
<path d="M5.94 16.4L9 29.21H9.06L12.15 16.4H17.19L12.27 32H5.67L0.78 16.4H5.94ZM23.1895 22.82H29.3695C29.3495 20.52 28.3295 19.37 26.3095 19.37C25.3895 19.37 24.6595 19.67 24.1195 20.27C23.5795 20.85 23.2695 21.7 23.1895 22.82ZM23.2195 25.79C23.3595 26.77 23.7695 27.54 24.4495 28.1C25.1495 28.64 26.0495 28.91 27.1495 28.91C28.6295 28.91 30.0795 28.55 31.4995 27.83L32.5495 31.1C30.7695 31.9 28.8195 32.3 26.6995 32.3C24.2195 32.3 22.2195 31.57 20.6995 30.11C19.1995 28.65 18.4495 26.68 18.4495 24.2C18.4495 21.7 19.1495 19.73 20.5495 18.29C21.9495 16.83 23.8295 16.1 26.1895 16.1C28.6095 16.1 30.4895 16.8 31.8295 18.2C33.1695 19.58 33.8395 21.56 33.8395 24.14C33.8395 24.76 33.7995 25.31 33.7195 25.79H23.2195ZM42.6689 28.61H50.1089V32H36.6089V28.61L44.0489 19.85V19.79H36.6089V16.4H50.1089V19.79L42.6689 28.55V28.61ZM57.4669 22.82H63.6469C63.6269 20.52 62.6069 19.37 60.5869 19.37C59.6669 19.37 58.9369 19.67 58.3969 20.27C57.8569 20.85 57.5469 21.7 57.4669 22.82ZM57.4969 25.79C57.6369 26.77 58.0469 27.54 58.7269 28.1C59.4269 28.64 60.3269 28.91 61.4269 28.91C62.9069 28.91 64.3569 28.55 65.7769 27.83L66.8269 31.1C65.0469 31.9 63.0969 32.3 60.9769 32.3C58.4969 32.3 56.4969 31.57 54.9769 30.11C53.4769 28.65 52.7269 26.68 52.7269 24.2C52.7269 21.7 53.4269 19.73 54.8269 18.29C56.2269 16.83 58.1069 16.1 60.4669 16.1C62.8869 16.1 64.7669 16.8 66.1069 18.2C67.4469 19.58 68.1169 21.56 68.1169 24.14C68.1169 24.76 68.0769 25.31 67.9969 25.79H57.4969ZM78.2363 17H83.3363V20.39H78.2363V26C78.2363 27.08 78.3663 27.8 78.6263 28.16C78.8863 28.52 79.3563 28.7 80.0363 28.7C80.8963 28.7 81.7963 28.54 82.7363 28.22L83.2763 31.7C81.8563 32.1 80.3963 32.3 78.8963 32.3C76.9763 32.3 75.5663 31.87 74.6663 31.01C73.7863 30.15 73.3463 28.75 73.3463 26.81V20.39H70.1363V17H73.3463V11.3H78.2363V17ZM87.4125 10.1H102.803V14.21C101.123 17.01 99.6725 19.77 98.4525 22.49C97.2325 25.21 96.0225 28.38 94.8225 32H89.3625C91.7425 25.52 94.6125 19.63 97.9725 14.33V14.21H87.4125V10.1ZM110.494 22.82H116.674C116.654 20.52 115.634 19.37 113.614 19.37C112.694 19.37 111.964 19.67 111.424 20.27C110.884 20.85 110.574 21.7 110.494 22.82ZM110.524 25.79C110.664 26.77 111.074 27.54 111.754 28.1C112.454 28.64 113.354 28.91 114.454 28.91C115.934 28.91 117.384 28.55 118.804 27.83L119.854 31.1C118.074 31.9 116.124 32.3 114.004 32.3C111.524 32.3 109.524 31.57 108.004 30.11C106.504 28.65 105.754 26.68 105.754 24.2C105.754 21.7 106.454 19.73 107.854 18.29C109.254 16.83 111.134 16.1 113.494 16.1C115.914 16.1 117.794 16.8 119.134 18.2C120.474 19.58 121.144 21.56 121.144 24.14C121.144 24.76 121.104 25.31 121.024 25.79H110.524ZM124.514 32V26.3H130.214V32H124.514ZM134.783 16.4H139.343L139.373 19.4H139.433C141.173 17.2 143.553 16.1 146.573 16.1V19.94C144.333 19.94 142.623 20.42 141.443 21.38C140.263 22.34 139.673 23.65 139.673 25.31V32H134.783V16.4ZM154.519 16.4V25.4C154.519 26.64 154.669 27.48 154.969 27.92C155.269 28.34 155.789 28.55 156.529 28.55C157.289 28.55 157.969 28.16 158.569 27.38C159.169 26.58 159.469 25.65 159.469 24.59V16.4H164.269V32H159.829L159.739 29.84H159.679C159.099 30.6 158.379 31.2 157.519 31.64C156.659 32.08 155.779 32.3 154.879 32.3C153.099 32.3 151.799 31.82 150.979 30.86C150.179 29.88 149.779 28.23 149.779 25.91V16.4H154.519Z" fill="url(#paint0_linear)"/>
<defs>
<linearGradient id="paint0_linear" x1="3.32948e-08" y1="23" x2="107.662" y2="23" gradientUnits="userSpaceOnUse">
<stop stop-color="#E24C91"/>
<stop offset="1" stop-color="#A24DDD"/>
</linearGradient>
</defs>
</svg>
