<svg width="76" height="63" viewBox="0 0 76 63" fill="none" xmlns="http://www.w3.org/2000/svg">
<path d="M19.2999 56.8C23.9391 56.8 27.6999 53.0392 27.6999 48.4C27.6999 43.7608 23.9391 40 19.2999 40C14.6607 40 10.8999 43.7608 10.8999 48.4C10.8999 53.0392 14.6607 56.8 19.2999 56.8Z" fill="#FFCC15"/>
<path d="M58.5 61C62.6421 61 66 57.6421 66 53.5C66 49.3579 62.6421 46 58.5 46C54.3579 46 51 49.3579 51 53.5C51 57.6421 54.3579 61 58.5 61Z" fill="#FFCC15"/>
<path d="M18.5 53C20.433 53 22 51.433 22 49.5C22 47.567 20.433 46 18.5 46C16.567 46 15 47.567 15 49.5C15 51.433 16.567 53 18.5 53Z" fill="white"/>
<path d="M31.8999 28.7V21.2C31.8999 19.8 30.6999 18.6 29.2999 18.6H23.1999C21.0999 18.6 18.9999 19.5 17.4999 21C15.6999 22.9 13.9999 25.1 12.4999 27.5C11.9999 28.3 11.9999 29.2 12.3999 30C12.8999 30.8 13.6999 31.3 14.5999 31.3H29.1999C30.7999 31.4 31.8999 30.2 31.8999 28.7ZM14.3999 29C14.3999 28.9 14.2999 28.8 14.3999 28.7C15.7999 26.4 17.3999 24.3 19.0999 22.6C20.1999 21.5 21.6999 20.9 23.1999 20.9H29.2999C29.4999 20.9 29.6999 21.1 29.6999 21.3V28.8C29.6999 29 29.4999 29.2 29.2999 29.2H14.6999C14.4999 29.1 14.3999 29 14.3999 29Z" fill="#343132"/>
<path d="M54.6001 30.1C55.1001 29.3 55.0001 28.3 54.5001 27.5C53.0001 25.1 51.3001 22.9 49.5001 21C48.0001 19.5 45.9001 18.6 43.8001 18.6H37.7001C36.3001 18.6 35.1001 19.8 35.1001 21.2V28.7C35.1001 30.1 36.3001 31.3 37.7001 31.3H52.3001C53.3001 31.4 54.1001 30.9 54.6001 30.1ZM37.3001 28.7V21.2C37.3001 21 37.5001 20.8 37.7001 20.8H43.8001C45.4001 20.8 46.9001 21.4 48.0001 22.5C49.7001 24.2 51.3001 26.3 52.7001 28.6C52.8001 28.7 52.7001 28.9 52.7001 28.9C52.7001 29 52.6001 29.1 52.4001 29.1H37.7001C37.5001 29.1 37.3001 29 37.3001 28.7Z" fill="#343132"/>
<path d="M19.2999 53.2C21.6999 53.2 23.6999 51.2 23.6999 48.8C23.6999 46.4 21.6999 44.4 19.2999 44.4C16.8999 44.4 14.8999 46.4 14.8999 48.8C14.8999 51.3 16.7999 53.2 19.2999 53.2ZM19.2999 46.6C20.4999 46.6 21.4999 47.6 21.4999 48.8C21.4999 50 20.4999 51 19.2999 51C18.0999 51 17.0999 50 17.0999 48.8C17.0999 47.6 18.0999 46.6 19.2999 46.6Z" fill="#343132"/>
<path d="M68.2001 52C67.6001 47.3 63.4001 43.7 58.7001 43.7C53.9001 43.7 49.7001 47.4 49.1001 52.2V54.4C49.7001 59.2 53.7001 62.9 58.6001 62.9C63.5001 62.9 67.6001 59.2 68.1001 54.4C68.2001 54.4 68.2001 52.1 68.2001 52ZM58.6001 60.7C54.3001 60.7 50.8001 56.8 51.2001 52.5C51.6001 48.8 54.8001 45.9 58.6001 45.9C62.3001 45.9 65.6001 48.8 66.0001 52.5C66.4001 56.9 63.0001 60.7 58.6001 60.7Z" fill="#343132"/>
<path d="M74.6 43.1C74.5 40.3 73.5 37.5 71.9 35.3C70.7 33.6 69.1 32.3 67.3 31.4C65.9 30.7 64.4 30.2 62.8 30C61.4 29.8 60.3 29 59.6 27.8C57.6 24.1 55.2 20.8 52.6 18.1C50.3 15.7 47.1 14.4 43.8 14.4H23.3C20 14.4 16.8 15.7 14.5 18.1C13.4 19.2 12.3 20.5 11.3 21.8C10.9 22.3 11 23 11.5 23.4C12 23.8 12.7 23.7 13.1 23.2C14.1 21.9 15.1 20.8 16.1 19.7C18 17.8 20.6 16.7 23.3 16.7H43.8C46.5 16.7 49.2 17.8 51 19.7C53.5 22.3 55.7 25.4 57.6 28.9C58.6 30.7 60.3 31.9 62.4 32.3C63.8 32.5 65 32.9 66.2 33.5C67 33.9 67.7 34.4 68.4 35H65.1C63.2 35 62 37.1 62.8 38.7L63.6 40.3C64 41.2 64.9 41.7 65.9 41.7H72.1C72.2 42.1 72.2 42.5 72.3 43H69.4C68.2 43 67.3 43.9 67.2 45C67.2 45.1 67.2 45.2 67.2 45.2V47.8H63.6C63.6 47.7 63.6 47.7 63.6 47.6C63 42.9 58.8 39.3 54.1 39.3C49.3 39.3 45.1 43 44.5 47.8H28.8C28.2 43 24.1 39.3 19.2 39.3C14.4 39.3 10.2 43.1 9.6 47.8H8.5V45.2C8.5 45.1 8.5 45 8.5 45C8.4 43.9 7.4 43 6.3 43H4.2C4.3 42.6 4.4 42.1 4.5 41.7H8.7C10 41.7 11.3 40.8 11.7 39.5L12.6 36.7C13.3 34.7 11.7 32.5 9.6 32.5H7.6C8.5 30.5 9.5 28.5 10.6 26.7C10.9 26.2 10.8 25.5 10.2 25.2C9.7 24.9 9 25 8.7 25.6C7.3 27.7 6 30.3 4.9 33C4 35.2 3.2 37.6 2.5 40.1C2.3 41 2 41.9 1.8 42.8C0.8 43 0 43.9 0 45.1V47.7C0 48.9 1 49.9 2.2 49.9H9.7C10.3 54.7 14.3 58.4 19.2 58.4C24.1 58.4 28.2 54.7 28.7 49.9H33.4H44.4H46.7C46.6 49.3 46.6 48.7 46.6 48C47 44.3 50.2 41.4 54 41.4C56.9 41.4 59.6 43.2 60.8 45.8C61 46.1 62.9 46.3 64.1 47.2C65.3 48.2 65.7 49.9 65.7 49.9H67H63.6H73.5C74.7 49.9 75.7 48.9 75.7 47.7V45.1C75.7 44.2 75.3 43.5 74.6 43.1ZM65.9 39.3C65.8 39.3 65.7 39.2 65.6 39.1L64.8 37.5C64.7 37.3 64.9 37 65.1 37H70.4C70.9 37.7 71.3 38.5 71.6 39.3H65.9ZM6.7 34.6H9.6C10.2 34.6 10.7 35.3 10.5 35.9L9.6 38.7C9.5 39.1 9.1 39.4 8.7 39.4H5.1C5.6 37.7 6.1 36.1 6.7 34.6ZM6.3 47.7H2.2V45.1H6.2V47.7H6.3ZM19.3 56.2C15 56.2 11.5 52.3 11.9 48C12.3 44.3 15.5 41.4 19.3 41.4C23.3 41.4 26.7 44.8 26.7 48.8C26.7 52.9 23.4 56.2 19.3 56.2ZM73.5 47.7H69.4V45.1H73.4V47.7H73.5Z" fill="#343132"/>
<path d="M74.0999 1C74.0999 5.2 68.3999 5.2 68.3999 9.4C68.3999 13.6 74.0999 13.6 74.0999 17.8C74.0999 22 68.3999 22 68.3999 26.2" stroke="#343132" stroke-width="1.9843" stroke-miterlimit="10" stroke-linecap="round"/>
<path d="M62 11C62 13.75 65 13.75 65 16.5C65 19.25 62 19.25 62 22" stroke="#343132" stroke-width="1.9843" stroke-miterlimit="10" stroke-linecap="round"/>
</svg>
