<svg width="55" height="64" viewBox="0 0 55 64" fill="none" xmlns="http://www.w3.org/2000/svg">
<path d="M34.1726 59.7C38.7565 59.7 42.4726 55.9839 42.4726 51.4C42.4726 46.816 38.7565 43.1 34.1726 43.1C29.5886 43.1 25.8726 46.816 25.8726 51.4C25.8726 55.9839 29.5886 59.7 34.1726 59.7Z" fill="#FFCC15"/>
<path d="M34.1725 62.8C40.4685 62.8 45.5725 57.696 45.5725 51.4C45.5725 45.104 40.4685 40 34.1725 40C27.8764 40 22.7725 45.104 22.7725 51.4C22.7725 57.696 27.8764 62.8 34.1725 62.8Z" stroke="#343132" stroke-width="1.9843" stroke-miterlimit="10" stroke-linecap="round"/>
<path d="M31.3726 51.4H34.1726L36.7726 48.4" stroke="#343132" stroke-width="1.9843" stroke-miterlimit="10" stroke-linecap="round"/>
<path d="M34.1726 59.6V57.6" stroke="#343132" stroke-width="1.9843" stroke-miterlimit="10" stroke-linecap="round"/>
<path d="M34.1726 45.1V43.1" stroke="#343132" stroke-width="1.9843" stroke-miterlimit="10" stroke-linecap="round"/>
<path d="M42.3726 51.4H40.3726" stroke="#343132" stroke-width="1.9843" stroke-miterlimit="10" stroke-linecap="round"/>
<path d="M27.9727 51.4H25.9727" stroke="#343132" stroke-width="1.9843" stroke-miterlimit="10" stroke-linecap="round"/>
<path d="M25.5727 59.1H21.6727C20.7727 59.1 19.9727 58.3 19.9727 57.4V45.4C19.9727 44.5 20.7727 43.7 21.6727 43.7H25.5727" stroke="#343132" stroke-width="1.9843" stroke-miterlimit="10" stroke-linecap="round"/>
<path d="M14.7524 45.2616L14.7524 57.6616L19.9524 57.6616L19.9524 45.2616L14.7524 45.2616Z" stroke="#343132" stroke-width="1.9843" stroke-miterlimit="10" stroke-linecap="round"/>
<path d="M14.2726 29.4C6.17263 30.3 0.272629 37.6 1.07263 45.7C1.07263 45.8 1.07263 45.8 1.07263 45.9" stroke="#343132" stroke-width="1.9843" stroke-miterlimit="10" stroke-linecap="round"/>
<path d="M7.67256 44.3C7.67256 44.2 7.67256 44.2 7.67256 44.1C7.27256 40 10.1726 36.3 14.3726 35.8" stroke="#343132" stroke-width="1.9843" stroke-miterlimit="10" stroke-linecap="round"/>
<path d="M47.4728 24.2H47.0728C45.3728 24.2 44.0728 22.9 44.0728 21.2V10.6C44.0728 8.89998 45.3728 7.59998 47.0728 7.59998H47.3728C49.0728 7.59998 50.3728 8.89998 50.3728 10.6V21.2C50.4728 22.8 49.0728 24.2 47.4728 24.2Z" stroke="#343132" stroke-width="1.9843" stroke-miterlimit="10" stroke-linecap="round"/>
<path d="M41.0725 22.5H40.7725C39.0725 22.5 37.7725 21.2 37.7725 19.5V5.20001C37.7725 3.50001 39.0725 2.20001 40.7725 2.20001H41.0725C42.7725 2.20001 44.0725 3.50001 44.0725 5.20001V19.5C44.0725 21.1 42.7725 22.5 41.0725 22.5Z" stroke="#343132" stroke-width="1.9843" stroke-miterlimit="10" stroke-linecap="round"/>
<path d="M31.3726 9.4V4.2C31.3726 2.4 32.7726 1 34.5726 1C36.3726 1 37.7726 2.4 37.7726 4.2V18.2C37.7726 20 36.3726 21.4 34.5726 21.4C32.7726 21.4 31.3726 20 31.3726 18.2V14" stroke="#343132" stroke-width="1.9843" stroke-miterlimit="10" stroke-linecap="round"/>
<path d="M25.0728 10.3V6.7C25.0728 4.9 26.4728 3.5 28.2728 3.5C30.0728 3.5 31.4728 4.9 31.4728 6.7V9" stroke="#343132" stroke-width="1.9843" stroke-miterlimit="10" stroke-linecap="round"/>
<path d="M23.8726 42.8V35.1C23.8726 33.5 23.1726 31.9 22.0726 30.7L20.1726 29C18.9726 27.8 18.3726 26.2 18.3726 24.6V15.9C18.3726 14.3 19.3726 12.9 20.8726 12.2L28.2726 9.10003C29.7726 8.50003 31.5726 9.20003 32.1726 10.7C32.7726 12.1 32.1726 13.8 30.6726 14.5L28.0726 15.6L25.0726 17.1C24.4726 17.4 24.3726 18.3 24.9726 18.7C27.3726 20.2 31.5726 23.8 31.1726 31.1" stroke="#343132" stroke-width="1.9843" stroke-miterlimit="10" stroke-linecap="round"/>
<path d="M50.4725 14.8L50.5725 27.7C50.5725 29.3 49.9725 30.8 48.8725 32L46.9725 34C45.8725 35.2 45.2725 36.7 45.2725 38.3V42.9" stroke="#343132" stroke-width="1.9843" stroke-miterlimit="10" stroke-linecap="round"/>
<path d="M43.1726 59.1H47.0726C47.9726 59.1 48.7726 58.3 48.7726 57.4V45.5C48.7726 44.6 47.9726 43.8 47.0726 43.8H43.1726" stroke="#343132" stroke-width="1.9843" stroke-miterlimit="10" stroke-linecap="round"/>
<path d="M48.7827 45.3217L48.7827 57.7217L53.7827 57.7217L53.7827 45.3217L48.7827 45.3217Z" stroke="#343132" stroke-width="1.9843" stroke-miterlimit="10" stroke-linecap="round"/>
</svg>
