<svg width="58" height="70" viewBox="0 0 58 70" fill="none" xmlns="http://www.w3.org/2000/svg">
<path d="M21.3544 64.2078C21.9043 63.7721 21.9969 62.9731 21.5612 62.4232C21.1256 61.8734 20.3266 61.7808 19.7767 62.2164C19.2268 62.6521 19.1342 63.4511 19.5699 64.001C20.0056 64.5509 20.8045 64.6435 21.3544 64.2078Z" fill="#FFCC15"/>
<path d="M21.3527 58.1746C21.9026 57.7389 21.9952 56.9399 21.5595 56.39C21.1238 55.8401 20.3249 55.7476 19.775 56.1832C19.2251 56.6189 19.1325 57.4179 19.5682 57.9678C20.0038 58.5177 20.8028 58.6103 21.3527 58.1746Z" fill="#FFCC15"/>
<path d="M30.1116 36.6277C31.9112 36.6277 33.3932 35.1456 33.3932 33.346C33.3932 31.5464 31.9112 30.0643 30.1116 30.0643" stroke="#232323" stroke-width="1.9843" stroke-miterlimit="10" stroke-linecap="round"/>
<path d="M11.1625 36.5218C9.3629 36.5218 7.88086 35.0397 7.88086 33.2401C7.88086 31.4405 9.3629 29.9584 11.1625 29.9584" stroke="#232323" stroke-width="1.9843" stroke-miterlimit="10" stroke-linecap="round"/>
<path d="M4.49336 29.8526C4.28164 31.6522 4.17578 33.4518 4.17578 35.2515C4.17578 41.0738 5.4461 46.4726 7.56331 51.2364" stroke="#232323" stroke-width="1.9843" stroke-miterlimit="10" stroke-linecap="round"/>
<path d="M20.5842 24.5596C18.467 27.1002 15.1854 29.0057 11.2686 29.7467V36.2042C11.2686 41.3913 15.3971 45.5199 20.5842 45.5199C25.7714 45.5199 29.8999 41.3913 29.8999 36.2042V29.8526C26.089 29.1116 22.7015 27.2061 20.5842 24.5596Z" stroke="#232323" stroke-width="1.9843" stroke-miterlimit="10" stroke-linecap="round"/>
<path d="M18.7846 13.8677C11.4803 14.9263 5.65797 21.4896 4.59937 29.9584" stroke="#232323" stroke-width="1.9843" stroke-miterlimit="10" stroke-linecap="round"/>
<path d="M11.2686 29.8526C15.0795 29.1115 18.3612 27.206 20.5842 24.6654" stroke="#232323" stroke-width="1.9843" stroke-miterlimit="10" stroke-linecap="round"/>
<path d="M36.8866 29.9584C35.7222 21.3837 29.794 14.7146 22.3838 13.8677" stroke="#232323" stroke-width="1.9843" stroke-miterlimit="10" stroke-linecap="round"/>
<path d="M20.5842 24.5596C22.7014 27.2061 26.089 29.1116 30.0058 29.8526" stroke="#232323" stroke-width="1.9843" stroke-miterlimit="10" stroke-linecap="round"/>
<path d="M22.3838 13.7619C21.8545 13.656 21.2194 13.656 20.6901 13.656C20.0549 13.656 19.4197 13.656 18.6787 13.7619" stroke="#232323" stroke-width="1.9843" stroke-miterlimit="10" stroke-linecap="round"/>
<path d="M33.2874 51.3422C32.9698 51.2363 32.7581 51.1305 32.4405 51.0246L24.8186 48.6957V44.8847" stroke="#232323" stroke-width="1.9843" stroke-miterlimit="10" stroke-linecap="round"/>
<path d="M12.0095 49.966L17.3025 68.4915" stroke="#232323" stroke-width="1.9843" stroke-miterlimit="10" stroke-linecap="round"/>
<path d="M29.3705 50.0718L23.9717 68.4915" stroke="#232323" stroke-width="1.9843" stroke-miterlimit="10" stroke-linecap="round"/>
<path d="M24.9244 48.5898C23.7599 50.1777 22.172 51.1305 20.3724 51.1305C18.6786 51.1305 17.0907 50.1777 15.9263 48.6957" stroke="#232323" stroke-width="1.9843" stroke-miterlimit="10" stroke-linecap="round"/>
<path d="M7.98682 62.0341V68.4915" stroke="#232323" stroke-width="1.9843" stroke-miterlimit="10" stroke-linecap="round"/>
<path d="M33.0757 62.0341V68.4915" stroke="#232323" stroke-width="1.9843" stroke-miterlimit="10" stroke-linecap="round"/>
<path d="M37.2042 37.6862C37.2042 36.8394 37.31 36.0983 37.31 35.2515C37.31 33.4518 37.2042 31.6522 36.9924 29.8526" stroke="#232323" stroke-width="1.9843" stroke-miterlimit="10" stroke-linecap="round"/>
<path d="M5.86963 68.4915H40.0625V61.1871C40.0625 60.2344 39.9566 59.1758 39.639 58.3289" stroke="#232323" stroke-width="1.9843" stroke-miterlimit="10" stroke-linecap="round"/>
<path d="M16.138 44.9905V48.6956L8.62193 51.0246C4.06994 52.4008 1 56.5293 1 61.293V68.5974" stroke="#232323" stroke-width="1.9843" stroke-miterlimit="10" stroke-linecap="round"/>
<path d="M44.9319 55.8941C49.7845 55.8941 53.7183 51.9603 53.7183 47.1077C53.7183 42.2552 49.7845 38.3214 44.9319 38.3214C40.0793 38.3214 36.1455 42.2552 36.1455 47.1077C36.1455 51.9603 40.0793 55.8941 44.9319 55.8941Z" fill="#FFCC15"/>
<path d="M44.9319 49.3309V46.3668L41.7561 43.7203" stroke="#232323" stroke-width="1.9843" stroke-miterlimit="10" stroke-linecap="round"/>
<path d="M44.9319 55.7883V53.6711" stroke="#232323" stroke-width="1.9843" stroke-miterlimit="10" stroke-linecap="round"/>
<path d="M44.9319 40.4386V38.3214" stroke="#232323" stroke-width="1.9843" stroke-miterlimit="10" stroke-linecap="round"/>
<path d="M53.7183 47.1078H51.6011" stroke="#232323" stroke-width="1.9843" stroke-miterlimit="10" stroke-linecap="round"/>
<path d="M38.3687 47.1078H36.2515" stroke="#232323" stroke-width="1.9843" stroke-miterlimit="10" stroke-linecap="round"/>
<path d="M44.9318 59.1758C51.5968 59.1758 56.9999 53.7727 56.9999 47.1077C56.9999 40.4427 51.5968 35.0397 44.9318 35.0397C38.2668 35.0397 32.8638 40.4427 32.8638 47.1077C32.8638 53.7727 38.2668 59.1758 44.9318 59.1758Z" stroke="#232323" stroke-width="1.9843" stroke-miterlimit="10" stroke-linecap="round"/>
</svg>
