<svg width="56" height="64" viewBox="0 0 56 64" fill="none" xmlns="http://www.w3.org/2000/svg">
<path d="M29.7054 62.9024H31.8535C33.5133 62.9024 34.8802 61.6331 35.0755 59.9732L36.6377 46.4016H38.981L40.4456 59.9732C40.6409 61.6331 42.0078 62.9024 43.6676 62.9024H46.1086C47.9637 62.9024 49.4283 61.4378 49.4283 59.5827V28.0457L46.1086 26.4835L44.1558 26.6787L43.8629 34.8803H31.6582L31.4629 26.5811L26.581 28.0457L26.3857 59.5827C26.3857 61.4378 27.8503 62.9024 29.7054 62.9024Z" fill="#FFCC15"/>
<path d="M48.0616 14.6694V17.7938C48.0616 23.4568 43.4726 28.0457 37.8096 28.0457C32.1466 28.0457 27.5576 23.4568 27.5576 17.7938V14.5717" stroke="#343132" stroke-width="1.9843" stroke-miterlimit="10" stroke-linecap="round"/>
<path d="M24.8236 18.2819C24.433 17.1102 24.3354 15.8409 24.3354 14.474C24.2377 7.05354 30.3889 1 37.8094 1C45.2299 1 51.381 7.05354 51.381 14.5717C51.381 15.8409 51.1858 17.0126 50.8929 18.1842" stroke="#343132" stroke-width="1.9843" stroke-miterlimit="10" stroke-linecap="round"/>
<path d="M27.6552 20.43C26.093 20.43 24.7261 19.1607 24.7261 17.5008C24.7261 15.9386 25.9954 14.5717 27.6552 14.5717" stroke="#343132" stroke-width="1.9843" stroke-miterlimit="10" stroke-linecap="round"/>
<path d="M48.0615 20.5276C49.6237 20.5276 50.9907 19.2583 50.9907 17.5984C50.9907 16.0362 49.7214 14.6693 48.0615 14.6693" stroke="#343132" stroke-width="1.9843" stroke-miterlimit="10" stroke-linecap="round"/>
<path d="M27.8503 14.474C28.8267 14.8645 29.9984 15.1575 31.17 15.1575C33.9039 15.1575 36.4425 13.8882 38.0047 11.8378C39.5669 13.9858 42.1055 15.3527 44.937 15.3527C46.011 15.3527 46.9873 15.1575 47.9637 14.7669" stroke="#343132" stroke-width="1.9843" stroke-miterlimit="10" stroke-linecap="round"/>
<path d="M26.3857 47.4756V27.5575" stroke="#343132" stroke-width="1.9843" stroke-miterlimit="10" stroke-linecap="round"/>
<path d="M49.4283 28.0457V59.5827C49.4283 61.4378 47.9637 62.9023 46.1086 62.9023H43.8629C42.2031 62.9023 40.7385 61.6331 40.5432 59.9732L38.981 46.7921H36.833L35.4661 59.9732C35.2708 61.6331 33.8062 63 32.1464 63H29.8031C27.948 63 26.4834 61.5354 26.4834 59.6803V51.674" stroke="#343132" stroke-width="1.9843" stroke-miterlimit="10" stroke-linecap="round"/>
<path d="M43.5701 26.1906C49.526 26.1906 54.3102 31.0724 54.3102 37.0283V49.7213C54.3102 51.0882 53.2362 52.1622 51.8693 52.1622C50.5024 52.1622 49.4283 51.0882 49.4283 49.7213V39.0787" stroke="#343132" stroke-width="1.9843" stroke-miterlimit="10" stroke-linecap="round"/>
<path d="M49.4282 39.1764H54.4078" stroke="#343132" stroke-width="1.9843" stroke-miterlimit="10" stroke-linecap="round"/>
<path d="M20.2346 34.9779H10.1779C8.51803 34.9779 7.05347 33.611 7.05347 31.8535C7.05347 30.1937 8.4204 28.7291 10.1779 28.7291H20.2346V34.9779V34.9779Z" stroke="#343132" stroke-width="1.9843" stroke-miterlimit="10" stroke-linecap="round"/>
<path d="M32.1464 26.1906L20.2346 28.8268" stroke="#343132" stroke-width="1.9843" stroke-miterlimit="10" stroke-linecap="round"/>
<path d="M20.2346 34.9779V38.1023H26.1905" stroke="#343132" stroke-width="1.9843" stroke-miterlimit="10" stroke-linecap="round"/>
<path d="M44.0582 26.3859V34.7827L31.6582 34.8804V26.3859" stroke="#343132" stroke-width="1.9843" stroke-miterlimit="10" stroke-linecap="round"/>
<path d="M10.1779 21.6016C9.29913 22.2851 8.22512 22.6756 7.05346 22.6756C4.22197 22.6756 1.87866 20.3323 1.87866 17.5008C1.87866 14.9622 3.73378 12.8142 6.07709 12.4236" stroke="#343132" stroke-width="1.9843" stroke-miterlimit="10" stroke-linecap="round"/>
<path d="M3.44094 13.7913C1.97638 13.2055 1 11.8385 1 10.2763C1 8.22595 2.65984 6.5661 4.71024 6.5661C4.80787 6.5661 5.00315 6.5661 5.00315 6.5661C5.00315 6.5661 5.00315 6.37083 5.00315 6.27319C5.00315 3.4417 7.34646 1.09839 10.178 1.09839C13.0094 1.09839 15.3528 3.4417 15.3528 6.27319V6.37083" stroke="#343132" stroke-width="1.9843" stroke-miterlimit="10" stroke-linecap="round"/>
<path d="M11.2518 10.1779C11.2518 7.93227 13.107 6.07715 15.3526 6.07715C17.5983 6.07715 19.3558 7.93227 19.4534 10.1779C19.4534 12.6189 17.2078 13.8882 17.2078 13.8882C17.9889 14.7669 18.477 15.9386 18.477 17.2079C18.477 20.0394 16.1337 22.3827 13.3022 22.3827C10.4707 22.3827 8.12744 20.0394 8.12744 17.2079" stroke="#343132" stroke-width="1.9843" stroke-miterlimit="10" stroke-linecap="round"/>
<path d="M10.178 21.6016V40.7386" stroke="#343132" stroke-width="1.9843" stroke-miterlimit="10" stroke-linecap="round"/>
<path d="M8.71344 15.4504C9.25268 15.4504 9.68982 15.0132 9.68982 14.474C9.68982 13.9348 9.25268 13.4976 8.71344 13.4976C8.1742 13.4976 7.73706 13.9348 7.73706 14.474C7.73706 15.0132 8.1742 15.4504 8.71344 15.4504Z" fill="#343132"/>
<path d="M10.178 45.7181C10.7173 45.7181 11.1544 45.2809 11.1544 44.7417C11.1544 44.2025 10.7173 43.7653 10.178 43.7653C9.6388 43.7653 9.20166 44.2025 9.20166 44.7417C9.20166 45.2809 9.6388 45.7181 10.178 45.7181Z" fill="#343132"/>
</svg>
