<svg width="41" height="41" viewBox="0 0 41 41" fill="none" xmlns="http://www.w3.org/2000/svg">
<circle cx="20.5" cy="20.5" r="19.5" stroke="url(#paint0_linear)"/>
<path fill-rule="evenodd" clip-rule="evenodd" d="M29.0609 24.7003C28.444 24.0062 27.7499 23.3892 27.1329 22.6952C26.5159 22.0782 26.5159 21.7697 26.9787 21.0756C27.5185 20.3044 28.0583 19.6103 28.5982 18.9163C29.0609 18.2222 29.6008 17.5281 29.8321 16.7569C29.9864 16.2171 29.8321 15.9857 29.2923 15.9086C29.2152 15.9086 29.138 15.9086 28.9838 15.9086H25.8219C25.4363 15.9086 25.2049 16.0628 25.0507 16.4484C24.8964 16.9111 24.6651 17.3739 24.4337 17.8366C23.8939 18.8391 23.354 19.8417 22.5828 20.69C22.4286 20.8443 22.1972 21.0756 21.8887 20.9985C21.5031 20.8443 21.426 20.3044 21.426 20.0731V16.4484C21.3489 15.9086 21.2718 15.6772 20.7319 15.6001H17.4158C16.953 15.6001 16.7217 15.7543 16.4903 16.0628C16.5674 16.1399 16.4903 16.2942 16.7988 16.2942C17.3386 16.3713 17.6471 16.7569 17.7242 17.2967C17.8785 18.1451 17.8785 19.0705 17.8014 19.9188C17.8014 20.1502 17.7242 20.4587 17.6471 20.69C17.4929 21.0756 17.2615 21.1528 16.8759 20.9214C16.5674 20.69 16.3361 20.3816 16.1818 20.1502C15.4106 19.0705 14.7937 17.8366 14.2538 16.6027C14.0996 16.2171 13.8682 15.9857 13.4826 15.9857C12.5572 15.9857 11.5546 15.9857 10.6292 15.9857C10.0893 15.9857 9.85797 16.2942 10.0893 16.7569C11.0919 19.0705 12.2487 21.307 13.7911 23.3121C14.5623 24.3918 15.4106 25.3172 16.5674 25.9342C17.8785 26.7054 19.2666 26.9368 20.7319 26.8597C21.426 26.8597 21.6574 26.6283 21.6574 25.9342C21.6574 25.4715 21.7345 25.0088 21.9659 24.546C22.1972 24.1604 22.5057 24.0833 22.9684 24.3147C23.1998 24.4689 23.354 24.6232 23.5083 24.7774C23.8939 25.2401 24.2795 25.6257 24.6651 26.0113C25.2049 26.5512 25.7447 26.8597 26.5159 26.7825H29.4465C29.9092 26.7825 30.1406 26.1656 29.9092 25.6257C29.6008 25.3944 29.3694 25.0088 29.0609 24.7003Z" fill="#BB4CBE"/>
<defs>
<linearGradient id="paint0_linear" x1="1" y1="17.0179" x2="24.0704" y2="17.0179" gradientUnits="userSpaceOnUse">
<stop stop-color="#E24C91"/>
<stop offset="1" stop-color="#A24DDD"/>
</linearGradient>
</defs>
</svg>
